<?xml version="1.0" encoding="utf-8" standalone="no"?>
<!DOCTYPE svg PUBLIC "-//W3C//DTD SVG 1.1//EN"
  "http://www.w3.org/Graphics/SVG/1.1/DTD/svg11.dtd">
<svg xmlns:xlink="http://www.w3.org/1999/xlink" width="720pt" height="432pt" viewBox="0 0 720 432" xmlns="http://www.w3.org/2000/svg" version="1.1">
 <metadata>
  <rdf:RDF xmlns:dc="http://purl.org/dc/elements/1.1/" xmlns:cc="http://creativecommons.org/ns#" xmlns:rdf="http://www.w3.org/1999/02/22-rdf-syntax-ns#">
   <cc:Work>
    <dc:type rdf:resource="http://purl.org/dc/dcmitype/StillImage"/>
    <dc:date>2025-10-23T15:08:38.092680</dc:date>
    <dc:format>image/svg+xml</dc:format>
    <dc:creator>
     <cc:Agent>
      <dc:title>Matplotlib v3.9.4, https://matplotlib.org/</dc:title>
     </cc:Agent>
    </dc:creator>
   </cc:Work>
  </rdf:RDF>
 </metadata>
 <defs>
  <style type="text/css">*{stroke-linejoin: round; stroke-linecap: butt}</style>
 </defs>
 <g id="figure_1">
  <g id="patch_1">
   <path d="M 0 432 
L 720 432 
L 720 0 
L 0 0 
z
" style="fill: #ffffff"/>
  </g>
  <g id="axes_1">
   <g id="patch_2">
    <path d="M 90 384.48 
L 648 384.48 
L 648 51.84 
L 90 51.84 
z
" style="fill: #ffffff"/>
   </g>
   <g id="matplotlib.axis_1">
    <g id="xtick_1">
     <g id="line2d_1">
      <path d="M 115.363636 384.48 
L 115.363636 51.84 
" clip-path="url(#p2bd2051fbe)" style="fill: none; stroke: #b0b0b0; stroke-width: 0.8; stroke-linecap: square"/>
     </g>
     <g id="line2d_2">
      <defs>
       <path id="m6ebfb261f3" d="M 0 0 
L 0 3.5 
" style="stroke: #000000; stroke-width: 0.8"/>
      </defs>
      <g>
       <use xlink:href="#m6ebfb261f3" x="115.363636" y="384.48" style="stroke: #000000; stroke-width: 0.8"/>
      </g>
     </g>
     <g id="text_1">
      <!-- $\mathdefault{10^{0}}$ -->
      <g transform="translate(106.563636 399.078438) scale(0.1 -0.1)">
       <defs>
        <path id="DejaVuSans-31" d="M 794 531 
L 1825 531 
L 1825 4091 
L 703 3866 
L 703 4441 
L 1819 4666 
L 2450 4666 
L 2450 531 
L 3481 531 
L 3481 0 
L 794 0 
L 794 531 
z
" transform="scale(0.015625)"/>
        <path id="DejaVuSans-30" d="M 2034 4250 
Q 1547 4250 1301 3770 
Q 1056 3291 1056 2328 
Q 1056 1369 1301 889 
Q 1547 409 2034 409 
Q 2525 409 2770 889 
Q 3016 1369 3016 2328 
Q 3016 3291 2770 3770 
Q 2525 4250 2034 4250 
z
M 2034 4750 
Q 2819 4750 3233 4129 
Q 3647 3509 3647 2328 
Q 3647 1150 3233 529 
Q 2819 -91 2034 -91 
Q 1250 -91 836 529 
Q 422 1150 422 2328 
Q 422 3509 836 4129 
Q 1250 4750 2034 4750 
z
" transform="scale(0.015625)"/>
       </defs>
       <use xlink:href="#DejaVuSans-31" transform="translate(0 0.765625)"/>
       <use xlink:href="#DejaVuSans-30" transform="translate(63.623047 0.765625)"/>
       <use xlink:href="#DejaVuSans-30" transform="translate(128.203125 39.046875) scale(0.7)"/>
      </g>
     </g>
    </g>
    <g id="xtick_2">
     <g id="line2d_3">
      <path d="M 227.776045 384.48 
L 227.776045 51.84 
" clip-path="url(#p2bd2051fbe)" style="fill: none; stroke: #b0b0b0; stroke-width: 0.8; stroke-linecap: square"/>
     </g>
     <g id="line2d_4">
      <g>
       <use xlink:href="#m6ebfb261f3" x="227.776045" y="384.48" style="stroke: #000000; stroke-width: 0.8"/>
      </g>
     </g>
     <g id="text_2">
      <!-- $\mathdefault{10^{1}}$ -->
      <g transform="translate(218.976045 399.078438) scale(0.1 -0.1)">
       <use xlink:href="#DejaVuSans-31" transform="translate(0 0.684375)"/>
       <use xlink:href="#DejaVuSans-30" transform="translate(63.623047 0.684375)"/>
       <use xlink:href="#DejaVuSans-31" transform="translate(128.203125 38.965625) scale(0.7)"/>
      </g>
     </g>
    </g>
    <g id="xtick_3">
     <g id="line2d_5">
      <path d="M 340.188455 384.48 
L 340.188455 51.84 
" clip-path="url(#p2bd2051fbe)" style="fill: none; stroke: #b0b0b0; stroke-width: 0.8; stroke-linecap: square"/>
     </g>
     <g id="line2d_6">
      <g>
       <use xlink:href="#m6ebfb261f3" x="340.188455" y="384.48" style="stroke: #000000; stroke-width: 0.8"/>
      </g>
     </g>
     <g id="text_3">
      <!-- $\mathdefault{10^{2}}$ -->
      <g transform="translate(331.388455 399.078438) scale(0.1 -0.1)">
       <defs>
        <path id="DejaVuSans-32" d="M 1228 531 
L 3431 531 
L 3431 0 
L 469 0 
L 469 531 
Q 828 903 1448 1529 
Q 2069 2156 2228 2338 
Q 2531 2678 2651 2914 
Q 2772 3150 2772 3378 
Q 2772 3750 2511 3984 
Q 2250 4219 1831 4219 
Q 1534 4219 1204 4116 
Q 875 4013 500 3803 
L 500 4441 
Q 881 4594 1212 4672 
Q 1544 4750 1819 4750 
Q 2544 4750 2975 4387 
Q 3406 4025 3406 3419 
Q 3406 3131 3298 2873 
Q 3191 2616 2906 2266 
Q 2828 2175 2409 1742 
Q 1991 1309 1228 531 
z
" transform="scale(0.015625)"/>
       </defs>
       <use xlink:href="#DejaVuSans-31" transform="translate(0 0.765625)"/>
       <use xlink:href="#DejaVuSans-30" transform="translate(63.623047 0.765625)"/>
       <use xlink:href="#DejaVuSans-32" transform="translate(128.203125 39.046875) scale(0.7)"/>
      </g>
     </g>
    </g>
    <g id="xtick_4">
     <g id="line2d_7">
      <path d="M 452.600864 384.48 
L 452.600864 51.84 
" clip-path="url(#p2bd2051fbe)" style="fill: none; stroke: #b0b0b0; stroke-width: 0.8; stroke-linecap: square"/>
     </g>
     <g id="line2d_8">
      <g>
       <use xlink:href="#m6ebfb261f3" x="452.600864" y="384.48" style="stroke: #000000; stroke-width: 0.8"/>
      </g>
     </g>
     <g id="text_4">
      <!-- $\mathdefault{10^{3}}$ -->
      <g transform="translate(443.800864 399.078438) scale(0.1 -0.1)">
       <defs>
        <path id="DejaVuSans-33" d="M 2597 2516 
Q 3050 2419 3304 2112 
Q 3559 1806 3559 1356 
Q 3559 666 3084 287 
Q 2609 -91 1734 -91 
Q 1441 -91 1130 -33 
Q 819 25 488 141 
L 488 750 
Q 750 597 1062 519 
Q 1375 441 1716 441 
Q 2309 441 2620 675 
Q 2931 909 2931 1356 
Q 2931 1769 2642 2001 
Q 2353 2234 1838 2234 
L 1294 2234 
L 1294 2753 
L 1863 2753 
Q 2328 2753 2575 2939 
Q 2822 3125 2822 3475 
Q 2822 3834 2567 4026 
Q 2313 4219 1838 4219 
Q 1578 4219 1281 4162 
Q 984 4106 628 3988 
L 628 4550 
Q 988 4650 1302 4700 
Q 1616 4750 1894 4750 
Q 2613 4750 3031 4423 
Q 3450 4097 3450 3541 
Q 3450 3153 3228 2886 
Q 3006 2619 2597 2516 
z
" transform="scale(0.015625)"/>
       </defs>
       <use xlink:href="#DejaVuSans-31" transform="translate(0 0.765625)"/>
       <use xlink:href="#DejaVuSans-30" transform="translate(63.623047 0.765625)"/>
       <use xlink:href="#DejaVuSans-33" transform="translate(128.203125 39.046875) scale(0.7)"/>
      </g>
     </g>
    </g>
    <g id="xtick_5">
     <g id="line2d_9">
      <path d="M 565.013273 384.48 
L 565.013273 51.84 
" clip-path="url(#p2bd2051fbe)" style="fill: none; stroke: #b0b0b0; stroke-width: 0.8; stroke-linecap: square"/>
     </g>
     <g id="line2d_10">
      <g>
       <use xlink:href="#m6ebfb261f3" x="565.013273" y="384.48" style="stroke: #000000; stroke-width: 0.8"/>
      </g>
     </g>
     <g id="text_5">
      <!-- $\mathdefault{10^{4}}$ -->
      <g transform="translate(556.213273 399.078438) scale(0.1 -0.1)">
       <defs>
        <path id="DejaVuSans-34" d="M 2419 4116 
L 825 1625 
L 2419 1625 
L 2419 4116 
z
M 2253 4666 
L 3047 4666 
L 3047 1625 
L 3713 1625 
L 3713 1100 
L 3047 1100 
L 3047 0 
L 2419 0 
L 2419 1100 
L 313 1100 
L 313 1709 
L 2253 4666 
z
" transform="scale(0.015625)"/>
       </defs>
       <use xlink:href="#DejaVuSans-31" transform="translate(0 0.684375)"/>
       <use xlink:href="#DejaVuSans-30" transform="translate(63.623047 0.684375)"/>
       <use xlink:href="#DejaVuSans-34" transform="translate(128.203125 38.965625) scale(0.7)"/>
      </g>
     </g>
    </g>
    <g id="xtick_6">
     <g id="line2d_11">
      <defs>
       <path id="m35c5f5df85" d="M 0 0 
L 0 2 
" style="stroke: #000000; stroke-width: 0.6"/>
      </defs>
      <g>
       <use xlink:href="#m35c5f5df85" x="90.425084" y="384.48" style="stroke: #000000; stroke-width: 0.6"/>
      </g>
     </g>
    </g>
    <g id="xtick_7">
     <g id="line2d_12">
      <g>
       <use xlink:href="#m35c5f5df85" x="97.950734" y="384.48" style="stroke: #000000; stroke-width: 0.6"/>
      </g>
     </g>
    </g>
    <g id="xtick_8">
     <g id="line2d_13">
      <g>
       <use xlink:href="#m35c5f5df85" x="104.469748" y="384.48" style="stroke: #000000; stroke-width: 0.6"/>
      </g>
     </g>
    </g>
    <g id="xtick_9">
     <g id="line2d_14">
      <g>
       <use xlink:href="#m35c5f5df85" x="110.219927" y="384.48" style="stroke: #000000; stroke-width: 0.6"/>
      </g>
     </g>
    </g>
    <g id="xtick_10">
     <g id="line2d_15">
      <g>
       <use xlink:href="#m35c5f5df85" x="149.203143" y="384.48" style="stroke: #000000; stroke-width: 0.6"/>
      </g>
     </g>
    </g>
    <g id="xtick_11">
     <g id="line2d_16">
      <g>
       <use xlink:href="#m35c5f5df85" x="168.997986" y="384.48" style="stroke: #000000; stroke-width: 0.6"/>
      </g>
     </g>
    </g>
    <g id="xtick_12">
     <g id="line2d_17">
      <g>
       <use xlink:href="#m35c5f5df85" x="183.04265" y="384.48" style="stroke: #000000; stroke-width: 0.6"/>
      </g>
     </g>
    </g>
    <g id="xtick_13">
     <g id="line2d_18">
      <g>
       <use xlink:href="#m35c5f5df85" x="193.936538" y="384.48" style="stroke: #000000; stroke-width: 0.6"/>
      </g>
     </g>
    </g>
    <g id="xtick_14">
     <g id="line2d_19">
      <g>
       <use xlink:href="#m35c5f5df85" x="202.837493" y="384.48" style="stroke: #000000; stroke-width: 0.6"/>
      </g>
     </g>
    </g>
    <g id="xtick_15">
     <g id="line2d_20">
      <g>
       <use xlink:href="#m35c5f5df85" x="210.363143" y="384.48" style="stroke: #000000; stroke-width: 0.6"/>
      </g>
     </g>
    </g>
    <g id="xtick_16">
     <g id="line2d_21">
      <g>
       <use xlink:href="#m35c5f5df85" x="216.882157" y="384.48" style="stroke: #000000; stroke-width: 0.6"/>
      </g>
     </g>
    </g>
    <g id="xtick_17">
     <g id="line2d_22">
      <g>
       <use xlink:href="#m35c5f5df85" x="222.632336" y="384.48" style="stroke: #000000; stroke-width: 0.6"/>
      </g>
     </g>
    </g>
    <g id="xtick_18">
     <g id="line2d_23">
      <g>
       <use xlink:href="#m35c5f5df85" x="261.615552" y="384.48" style="stroke: #000000; stroke-width: 0.6"/>
      </g>
     </g>
    </g>
    <g id="xtick_19">
     <g id="line2d_24">
      <g>
       <use xlink:href="#m35c5f5df85" x="281.410395" y="384.48" style="stroke: #000000; stroke-width: 0.6"/>
      </g>
     </g>
    </g>
    <g id="xtick_20">
     <g id="line2d_25">
      <g>
       <use xlink:href="#m35c5f5df85" x="295.455059" y="384.48" style="stroke: #000000; stroke-width: 0.6"/>
      </g>
     </g>
    </g>
    <g id="xtick_21">
     <g id="line2d_26">
      <g>
       <use xlink:href="#m35c5f5df85" x="306.348948" y="384.48" style="stroke: #000000; stroke-width: 0.6"/>
      </g>
     </g>
    </g>
    <g id="xtick_22">
     <g id="line2d_27">
      <g>
       <use xlink:href="#m35c5f5df85" x="315.249902" y="384.48" style="stroke: #000000; stroke-width: 0.6"/>
      </g>
     </g>
    </g>
    <g id="xtick_23">
     <g id="line2d_28">
      <g>
       <use xlink:href="#m35c5f5df85" x="322.775552" y="384.48" style="stroke: #000000; stroke-width: 0.6"/>
      </g>
     </g>
    </g>
    <g id="xtick_24">
     <g id="line2d_29">
      <g>
       <use xlink:href="#m35c5f5df85" x="329.294567" y="384.48" style="stroke: #000000; stroke-width: 0.6"/>
      </g>
     </g>
    </g>
    <g id="xtick_25">
     <g id="line2d_30">
      <g>
       <use xlink:href="#m35c5f5df85" x="335.044745" y="384.48" style="stroke: #000000; stroke-width: 0.6"/>
      </g>
     </g>
    </g>
    <g id="xtick_26">
     <g id="line2d_31">
      <g>
       <use xlink:href="#m35c5f5df85" x="374.027962" y="384.48" style="stroke: #000000; stroke-width: 0.6"/>
      </g>
     </g>
    </g>
    <g id="xtick_27">
     <g id="line2d_32">
      <g>
       <use xlink:href="#m35c5f5df85" x="393.822804" y="384.48" style="stroke: #000000; stroke-width: 0.6"/>
      </g>
     </g>
    </g>
    <g id="xtick_28">
     <g id="line2d_33">
      <g>
       <use xlink:href="#m35c5f5df85" x="407.867469" y="384.48" style="stroke: #000000; stroke-width: 0.6"/>
      </g>
     </g>
    </g>
    <g id="xtick_29">
     <g id="line2d_34">
      <g>
       <use xlink:href="#m35c5f5df85" x="418.761357" y="384.48" style="stroke: #000000; stroke-width: 0.6"/>
      </g>
     </g>
    </g>
    <g id="xtick_30">
     <g id="line2d_35">
      <g>
       <use xlink:href="#m35c5f5df85" x="427.662311" y="384.48" style="stroke: #000000; stroke-width: 0.6"/>
      </g>
     </g>
    </g>
    <g id="xtick_31">
     <g id="line2d_36">
      <g>
       <use xlink:href="#m35c5f5df85" x="435.187961" y="384.48" style="stroke: #000000; stroke-width: 0.6"/>
      </g>
     </g>
    </g>
    <g id="xtick_32">
     <g id="line2d_37">
      <g>
       <use xlink:href="#m35c5f5df85" x="441.706976" y="384.48" style="stroke: #000000; stroke-width: 0.6"/>
      </g>
     </g>
    </g>
    <g id="xtick_33">
     <g id="line2d_38">
      <g>
       <use xlink:href="#m35c5f5df85" x="447.457154" y="384.48" style="stroke: #000000; stroke-width: 0.6"/>
      </g>
     </g>
    </g>
    <g id="xtick_34">
     <g id="line2d_39">
      <g>
       <use xlink:href="#m35c5f5df85" x="486.440371" y="384.48" style="stroke: #000000; stroke-width: 0.6"/>
      </g>
     </g>
    </g>
    <g id="xtick_35">
     <g id="line2d_40">
      <g>
       <use xlink:href="#m35c5f5df85" x="506.235213" y="384.48" style="stroke: #000000; stroke-width: 0.6"/>
      </g>
     </g>
    </g>
    <g id="xtick_36">
     <g id="line2d_41">
      <g>
       <use xlink:href="#m35c5f5df85" x="520.279878" y="384.48" style="stroke: #000000; stroke-width: 0.6"/>
      </g>
     </g>
    </g>
    <g id="xtick_37">
     <g id="line2d_42">
      <g>
       <use xlink:href="#m35c5f5df85" x="531.173766" y="384.48" style="stroke: #000000; stroke-width: 0.6"/>
      </g>
     </g>
    </g>
    <g id="xtick_38">
     <g id="line2d_43">
      <g>
       <use xlink:href="#m35c5f5df85" x="540.07472" y="384.48" style="stroke: #000000; stroke-width: 0.6"/>
      </g>
     </g>
    </g>
    <g id="xtick_39">
     <g id="line2d_44">
      <g>
       <use xlink:href="#m35c5f5df85" x="547.60037" y="384.48" style="stroke: #000000; stroke-width: 0.6"/>
      </g>
     </g>
    </g>
    <g id="xtick_40">
     <g id="line2d_45">
      <g>
       <use xlink:href="#m35c5f5df85" x="554.119385" y="384.48" style="stroke: #000000; stroke-width: 0.6"/>
      </g>
     </g>
    </g>
    <g id="xtick_41">
     <g id="line2d_46">
      <g>
       <use xlink:href="#m35c5f5df85" x="559.869563" y="384.48" style="stroke: #000000; stroke-width: 0.6"/>
      </g>
     </g>
    </g>
    <g id="xtick_42">
     <g id="line2d_47">
      <g>
       <use xlink:href="#m35c5f5df85" x="598.85278" y="384.48" style="stroke: #000000; stroke-width: 0.6"/>
      </g>
     </g>
    </g>
    <g id="xtick_43">
     <g id="line2d_48">
      <g>
       <use xlink:href="#m35c5f5df85" x="618.647622" y="384.48" style="stroke: #000000; stroke-width: 0.6"/>
      </g>
     </g>
    </g>
    <g id="xtick_44">
     <g id="line2d_49">
      <g>
       <use xlink:href="#m35c5f5df85" x="632.692287" y="384.48" style="stroke: #000000; stroke-width: 0.6"/>
      </g>
     </g>
    </g>
    <g id="xtick_45">
     <g id="line2d_50">
      <g>
       <use xlink:href="#m35c5f5df85" x="643.586175" y="384.48" style="stroke: #000000; stroke-width: 0.6"/>
      </g>
     </g>
    </g>
    <g id="text_6">
     <!-- Rank (log scale) -->
     <g transform="translate(328.924219 412.756563) scale(0.1 -0.1)">
      <defs>
       <path id="DejaVuSans-52" d="M 2841 2188 
Q 3044 2119 3236 1894 
Q 3428 1669 3622 1275 
L 4263 0 
L 3584 0 
L 2988 1197 
Q 2756 1666 2539 1819 
Q 2322 1972 1947 1972 
L 1259 1972 
L 1259 0 
L 628 0 
L 628 4666 
L 2053 4666 
Q 2853 4666 3247 4331 
Q 3641 3997 3641 3322 
Q 3641 2881 3436 2590 
Q 3231 2300 2841 2188 
z
M 1259 4147 
L 1259 2491 
L 2053 2491 
Q 2509 2491 2742 2702 
Q 2975 2913 2975 3322 
Q 2975 3731 2742 3939 
Q 2509 4147 2053 4147 
L 1259 4147 
z
" transform="scale(0.015625)"/>
       <path id="DejaVuSans-61" d="M 2194 1759 
Q 1497 1759 1228 1600 
Q 959 1441 959 1056 
Q 959 750 1161 570 
Q 1363 391 1709 391 
Q 2188 391 2477 730 
Q 2766 1069 2766 1631 
L 2766 1759 
L 2194 1759 
z
M 3341 1997 
L 3341 0 
L 2766 0 
L 2766 531 
Q 2569 213 2275 61 
Q 1981 -91 1556 -91 
Q 1019 -91 701 211 
Q 384 513 384 1019 
Q 384 1609 779 1909 
Q 1175 2209 1959 2209 
L 2766 2209 
L 2766 2266 
Q 2766 2663 2505 2880 
Q 2244 3097 1772 3097 
Q 1472 3097 1187 3025 
Q 903 2953 641 2809 
L 641 3341 
Q 956 3463 1253 3523 
Q 1550 3584 1831 3584 
Q 2591 3584 2966 3190 
Q 3341 2797 3341 1997 
z
" transform="scale(0.015625)"/>
       <path id="DejaVuSans-6e" d="M 3513 2113 
L 3513 0 
L 2938 0 
L 2938 2094 
Q 2938 2591 2744 2837 
Q 2550 3084 2163 3084 
Q 1697 3084 1428 2787 
Q 1159 2491 1159 1978 
L 1159 0 
L 581 0 
L 581 3500 
L 1159 3500 
L 1159 2956 
Q 1366 3272 1645 3428 
Q 1925 3584 2291 3584 
Q 2894 3584 3203 3211 
Q 3513 2838 3513 2113 
z
" transform="scale(0.015625)"/>
       <path id="DejaVuSans-6b" d="M 581 4863 
L 1159 4863 
L 1159 1991 
L 2875 3500 
L 3609 3500 
L 1753 1863 
L 3688 0 
L 2938 0 
L 1159 1709 
L 1159 0 
L 581 0 
L 581 4863 
z
" transform="scale(0.015625)"/>
       <path id="DejaVuSans-20" transform="scale(0.015625)"/>
       <path id="DejaVuSans-28" d="M 1984 4856 
Q 1566 4138 1362 3434 
Q 1159 2731 1159 2009 
Q 1159 1288 1364 580 
Q 1569 -128 1984 -844 
L 1484 -844 
Q 1016 -109 783 600 
Q 550 1309 550 2009 
Q 550 2706 781 3412 
Q 1013 4119 1484 4856 
L 1984 4856 
z
" transform="scale(0.015625)"/>
       <path id="DejaVuSans-6c" d="M 603 4863 
L 1178 4863 
L 1178 0 
L 603 0 
L 603 4863 
z
" transform="scale(0.015625)"/>
       <path id="DejaVuSans-6f" d="M 1959 3097 
Q 1497 3097 1228 2736 
Q 959 2375 959 1747 
Q 959 1119 1226 758 
Q 1494 397 1959 397 
Q 2419 397 2687 759 
Q 2956 1122 2956 1747 
Q 2956 2369 2687 2733 
Q 2419 3097 1959 3097 
z
M 1959 3584 
Q 2709 3584 3137 3096 
Q 3566 2609 3566 1747 
Q 3566 888 3137 398 
Q 2709 -91 1959 -91 
Q 1206 -91 779 398 
Q 353 888 353 1747 
Q 353 2609 779 3096 
Q 1206 3584 1959 3584 
z
" transform="scale(0.015625)"/>
       <path id="DejaVuSans-67" d="M 2906 1791 
Q 2906 2416 2648 2759 
Q 2391 3103 1925 3103 
Q 1463 3103 1205 2759 
Q 947 2416 947 1791 
Q 947 1169 1205 825 
Q 1463 481 1925 481 
Q 2391 481 2648 825 
Q 2906 1169 2906 1791 
z
M 3481 434 
Q 3481 -459 3084 -895 
Q 2688 -1331 1869 -1331 
Q 1566 -1331 1297 -1286 
Q 1028 -1241 775 -1147 
L 775 -588 
Q 1028 -725 1275 -790 
Q 1522 -856 1778 -856 
Q 2344 -856 2625 -561 
Q 2906 -266 2906 331 
L 2906 616 
Q 2728 306 2450 153 
Q 2172 0 1784 0 
Q 1141 0 747 490 
Q 353 981 353 1791 
Q 353 2603 747 3093 
Q 1141 3584 1784 3584 
Q 2172 3584 2450 3431 
Q 2728 3278 2906 2969 
L 2906 3500 
L 3481 3500 
L 3481 434 
z
" transform="scale(0.015625)"/>
       <path id="DejaVuSans-73" d="M 2834 3397 
L 2834 2853 
Q 2591 2978 2328 3040 
Q 2066 3103 1784 3103 
Q 1356 3103 1142 2972 
Q 928 2841 928 2578 
Q 928 2378 1081 2264 
Q 1234 2150 1697 2047 
L 1894 2003 
Q 2506 1872 2764 1633 
Q 3022 1394 3022 966 
Q 3022 478 2636 193 
Q 2250 -91 1575 -91 
Q 1294 -91 989 -36 
Q 684 19 347 128 
L 347 722 
Q 666 556 975 473 
Q 1284 391 1588 391 
Q 1994 391 2212 530 
Q 2431 669 2431 922 
Q 2431 1156 2273 1281 
Q 2116 1406 1581 1522 
L 1381 1569 
Q 847 1681 609 1914 
Q 372 2147 372 2553 
Q 372 3047 722 3315 
Q 1072 3584 1716 3584 
Q 2034 3584 2315 3537 
Q 2597 3491 2834 3397 
z
" transform="scale(0.015625)"/>
       <path id="DejaVuSans-63" d="M 3122 3366 
L 3122 2828 
Q 2878 2963 2633 3030 
Q 2388 3097 2138 3097 
Q 1578 3097 1268 2742 
Q 959 2388 959 1747 
Q 959 1106 1268 751 
Q 1578 397 2138 397 
Q 2388 397 2633 464 
Q 2878 531 3122 666 
L 3122 134 
Q 2881 22 2623 -34 
Q 2366 -91 2075 -91 
Q 1284 -91 818 406 
Q 353 903 353 1747 
Q 353 2603 823 3093 
Q 1294 3584 2113 3584 
Q 2378 3584 2631 3529 
Q 2884 3475 3122 3366 
z
" transform="scale(0.015625)"/>
       <path id="DejaVuSans-65" d="M 3597 1894 
L 3597 1613 
L 953 1613 
Q 991 1019 1311 708 
Q 1631 397 2203 397 
Q 2534 397 2845 478 
Q 3156 559 3463 722 
L 3463 178 
Q 3153 47 2828 -22 
Q 2503 -91 2169 -91 
Q 1331 -91 842 396 
Q 353 884 353 1716 
Q 353 2575 817 3079 
Q 1281 3584 2069 3584 
Q 2775 3584 3186 3129 
Q 3597 2675 3597 1894 
z
M 3022 2063 
Q 3016 2534 2758 2815 
Q 2500 3097 2075 3097 
Q 1594 3097 1305 2825 
Q 1016 2553 972 2059 
L 3022 2063 
z
" transform="scale(0.015625)"/>
       <path id="DejaVuSans-29" d="M 513 4856 
L 1013 4856 
Q 1481 4119 1714 3412 
Q 1947 2706 1947 2009 
Q 1947 1309 1714 600 
Q 1481 -109 1013 -844 
L 513 -844 
Q 928 -128 1133 580 
Q 1338 1288 1338 2009 
Q 1338 2731 1133 3434 
Q 928 4138 513 4856 
z
" transform="scale(0.015625)"/>
      </defs>
      <use xlink:href="#DejaVuSans-52"/>
      <use xlink:href="#DejaVuSans-61" x="67.232422"/>
      <use xlink:href="#DejaVuSans-6e" x="128.511719"/>
      <use xlink:href="#DejaVuSans-6b" x="191.890625"/>
      <use xlink:href="#DejaVuSans-20" x="249.800781"/>
      <use xlink:href="#DejaVuSans-28" x="281.587891"/>
      <use xlink:href="#DejaVuSans-6c" x="320.601562"/>
      <use xlink:href="#DejaVuSans-6f" x="348.384766"/>
      <use xlink:href="#DejaVuSans-67" x="409.566406"/>
      <use xlink:href="#DejaVuSans-20" x="473.042969"/>
      <use xlink:href="#DejaVuSans-73" x="504.830078"/>
      <use xlink:href="#DejaVuSans-63" x="556.929688"/>
      <use xlink:href="#DejaVuSans-61" x="611.910156"/>
      <use xlink:href="#DejaVuSans-6c" x="673.189453"/>
      <use xlink:href="#DejaVuSans-65" x="700.972656"/>
      <use xlink:href="#DejaVuSans-29" x="762.496094"/>
     </g>
    </g>
   </g>
   <g id="matplotlib.axis_2">
    <g id="ytick_1">
     <g id="line2d_51">
      <path d="M 90 369.36 
L 648 369.36 
" clip-path="url(#p2bd2051fbe)" style="fill: none; stroke: #b0b0b0; stroke-width: 0.8; stroke-linecap: square"/>
     </g>
     <g id="line2d_52">
      <defs>
       <path id="mbd756f2c42" d="M 0 0 
L -3.5 0 
" style="stroke: #000000; stroke-width: 0.8"/>
      </defs>
      <g>
       <use xlink:href="#mbd756f2c42" x="90" y="369.36" style="stroke: #000000; stroke-width: 0.8"/>
      </g>
     </g>
     <g id="text_7">
      <!-- $\mathdefault{10^{0}}$ -->
      <g transform="translate(65.4 373.159219) scale(0.1 -0.1)">
       <use xlink:href="#DejaVuSans-31" transform="translate(0 0.765625)"/>
       <use xlink:href="#DejaVuSans-30" transform="translate(63.623047 0.765625)"/>
       <use xlink:href="#DejaVuSans-30" transform="translate(128.203125 39.046875) scale(0.7)"/>
      </g>
     </g>
    </g>
    <g id="ytick_2">
     <g id="line2d_53">
      <path d="M 90 291.566682 
L 648 291.566682 
" clip-path="url(#p2bd2051fbe)" style="fill: none; stroke: #b0b0b0; stroke-width: 0.8; stroke-linecap: square"/>
     </g>
     <g id="line2d_54">
      <g>
       <use xlink:href="#mbd756f2c42" x="90" y="291.566682" style="stroke: #000000; stroke-width: 0.8"/>
      </g>
     </g>
     <g id="text_8">
      <!-- $\mathdefault{10^{1}}$ -->
      <g transform="translate(65.4 295.365901) scale(0.1 -0.1)">
       <use xlink:href="#DejaVuSans-31" transform="translate(0 0.684375)"/>
       <use xlink:href="#DejaVuSans-30" transform="translate(63.623047 0.684375)"/>
       <use xlink:href="#DejaVuSans-31" transform="translate(128.203125 38.965625) scale(0.7)"/>
      </g>
     </g>
    </g>
    <g id="ytick_3">
     <g id="line2d_55">
      <path d="M 90 213.773364 
L 648 213.773364 
" clip-path="url(#p2bd2051fbe)" style="fill: none; stroke: #b0b0b0; stroke-width: 0.8; stroke-linecap: square"/>
     </g>
     <g id="line2d_56">
      <g>
       <use xlink:href="#mbd756f2c42" x="90" y="213.773364" style="stroke: #000000; stroke-width: 0.8"/>
      </g>
     </g>
     <g id="text_9">
      <!-- $\mathdefault{10^{2}}$ -->
      <g transform="translate(65.4 217.572583) scale(0.1 -0.1)">
       <use xlink:href="#DejaVuSans-31" transform="translate(0 0.765625)"/>
       <use xlink:href="#DejaVuSans-30" transform="translate(63.623047 0.765625)"/>
       <use xlink:href="#DejaVuSans-32" transform="translate(128.203125 39.046875) scale(0.7)"/>
      </g>
     </g>
    </g>
    <g id="ytick_4">
     <g id="line2d_57">
      <path d="M 90 135.980047 
L 648 135.980047 
" clip-path="url(#p2bd2051fbe)" style="fill: none; stroke: #b0b0b0; stroke-width: 0.8; stroke-linecap: square"/>
     </g>
     <g id="line2d_58">
      <g>
       <use xlink:href="#mbd756f2c42" x="90" y="135.980047" style="stroke: #000000; stroke-width: 0.8"/>
      </g>
     </g>
     <g id="text_10">
      <!-- $\mathdefault{10^{3}}$ -->
      <g transform="translate(65.4 139.779265) scale(0.1 -0.1)">
       <use xlink:href="#DejaVuSans-31" transform="translate(0 0.765625)"/>
       <use xlink:href="#DejaVuSans-30" transform="translate(63.623047 0.765625)"/>
       <use xlink:href="#DejaVuSans-33" transform="translate(128.203125 39.046875) scale(0.7)"/>
      </g>
     </g>
    </g>
    <g id="ytick_5">
     <g id="line2d_59">
      <path d="M 90 58.186729 
L 648 58.186729 
" clip-path="url(#p2bd2051fbe)" style="fill: none; stroke: #b0b0b0; stroke-width: 0.8; stroke-linecap: square"/>
     </g>
     <g id="line2d_60">
      <g>
       <use xlink:href="#mbd756f2c42" x="90" y="58.186729" style="stroke: #000000; stroke-width: 0.8"/>
      </g>
     </g>
     <g id="text_11">
      <!-- $\mathdefault{10^{4}}$ -->
      <g transform="translate(65.4 61.985948) scale(0.1 -0.1)">
       <use xlink:href="#DejaVuSans-31" transform="translate(0 0.684375)"/>
       <use xlink:href="#DejaVuSans-30" transform="translate(63.623047 0.684375)"/>
       <use xlink:href="#DejaVuSans-34" transform="translate(128.203125 38.965625) scale(0.7)"/>
      </g>
     </g>
    </g>
    <g id="ytick_6">
     <g id="line2d_61">
      <defs>
       <path id="mf4afe4dc0a" d="M 0 0 
L -2 0 
" style="stroke: #000000; stroke-width: 0.6"/>
      </defs>
      <g>
       <use xlink:href="#mf4afe4dc0a" x="90" y="381.410337" style="stroke: #000000; stroke-width: 0.6"/>
      </g>
     </g>
    </g>
    <g id="ytick_7">
     <g id="line2d_62">
      <g>
       <use xlink:href="#mf4afe4dc0a" x="90" y="376.898951" style="stroke: #000000; stroke-width: 0.6"/>
      </g>
     </g>
    </g>
    <g id="ytick_8">
     <g id="line2d_63">
      <g>
       <use xlink:href="#mf4afe4dc0a" x="90" y="372.919627" style="stroke: #000000; stroke-width: 0.6"/>
      </g>
     </g>
    </g>
    <g id="ytick_9">
     <g id="line2d_64">
      <g>
       <use xlink:href="#mf4afe4dc0a" x="90" y="345.941878" style="stroke: #000000; stroke-width: 0.6"/>
      </g>
     </g>
    </g>
    <g id="ytick_10">
     <g id="line2d_65">
      <g>
       <use xlink:href="#mf4afe4dc0a" x="90" y="332.243155" style="stroke: #000000; stroke-width: 0.6"/>
      </g>
     </g>
    </g>
    <g id="ytick_11">
     <g id="line2d_66">
      <g>
       <use xlink:href="#mf4afe4dc0a" x="90" y="322.523756" style="stroke: #000000; stroke-width: 0.6"/>
      </g>
     </g>
    </g>
    <g id="ytick_12">
     <g id="line2d_67">
      <g>
       <use xlink:href="#mf4afe4dc0a" x="90" y="314.984804" style="stroke: #000000; stroke-width: 0.6"/>
      </g>
     </g>
    </g>
    <g id="ytick_13">
     <g id="line2d_68">
      <g>
       <use xlink:href="#mf4afe4dc0a" x="90" y="308.825032" style="stroke: #000000; stroke-width: 0.6"/>
      </g>
     </g>
    </g>
    <g id="ytick_14">
     <g id="line2d_69">
      <g>
       <use xlink:href="#mf4afe4dc0a" x="90" y="303.61702" style="stroke: #000000; stroke-width: 0.6"/>
      </g>
     </g>
    </g>
    <g id="ytick_15">
     <g id="line2d_70">
      <g>
       <use xlink:href="#mf4afe4dc0a" x="90" y="299.105634" style="stroke: #000000; stroke-width: 0.6"/>
      </g>
     </g>
    </g>
    <g id="ytick_16">
     <g id="line2d_71">
      <g>
       <use xlink:href="#mf4afe4dc0a" x="90" y="295.126309" style="stroke: #000000; stroke-width: 0.6"/>
      </g>
     </g>
    </g>
    <g id="ytick_17">
     <g id="line2d_72">
      <g>
       <use xlink:href="#mf4afe4dc0a" x="90" y="268.14856" style="stroke: #000000; stroke-width: 0.6"/>
      </g>
     </g>
    </g>
    <g id="ytick_18">
     <g id="line2d_73">
      <g>
       <use xlink:href="#mf4afe4dc0a" x="90" y="254.449837" style="stroke: #000000; stroke-width: 0.6"/>
      </g>
     </g>
    </g>
    <g id="ytick_19">
     <g id="line2d_74">
      <g>
       <use xlink:href="#mf4afe4dc0a" x="90" y="244.730438" style="stroke: #000000; stroke-width: 0.6"/>
      </g>
     </g>
    </g>
    <g id="ytick_20">
     <g id="line2d_75">
      <g>
       <use xlink:href="#mf4afe4dc0a" x="90" y="237.191487" style="stroke: #000000; stroke-width: 0.6"/>
      </g>
     </g>
    </g>
    <g id="ytick_21">
     <g id="line2d_76">
      <g>
       <use xlink:href="#mf4afe4dc0a" x="90" y="231.031715" style="stroke: #000000; stroke-width: 0.6"/>
      </g>
     </g>
    </g>
    <g id="ytick_22">
     <g id="line2d_77">
      <g>
       <use xlink:href="#mf4afe4dc0a" x="90" y="225.823702" style="stroke: #000000; stroke-width: 0.6"/>
      </g>
     </g>
    </g>
    <g id="ytick_23">
     <g id="line2d_78">
      <g>
       <use xlink:href="#mf4afe4dc0a" x="90" y="221.312316" style="stroke: #000000; stroke-width: 0.6"/>
      </g>
     </g>
    </g>
    <g id="ytick_24">
     <g id="line2d_79">
      <g>
       <use xlink:href="#mf4afe4dc0a" x="90" y="217.332991" style="stroke: #000000; stroke-width: 0.6"/>
      </g>
     </g>
    </g>
    <g id="ytick_25">
     <g id="line2d_80">
      <g>
       <use xlink:href="#mf4afe4dc0a" x="90" y="190.355242" style="stroke: #000000; stroke-width: 0.6"/>
      </g>
     </g>
    </g>
    <g id="ytick_26">
     <g id="line2d_81">
      <g>
       <use xlink:href="#mf4afe4dc0a" x="90" y="176.656519" style="stroke: #000000; stroke-width: 0.6"/>
      </g>
     </g>
    </g>
    <g id="ytick_27">
     <g id="line2d_82">
      <g>
       <use xlink:href="#mf4afe4dc0a" x="90" y="166.93712" style="stroke: #000000; stroke-width: 0.6"/>
      </g>
     </g>
    </g>
    <g id="ytick_28">
     <g id="line2d_83">
      <g>
       <use xlink:href="#mf4afe4dc0a" x="90" y="159.398169" style="stroke: #000000; stroke-width: 0.6"/>
      </g>
     </g>
    </g>
    <g id="ytick_29">
     <g id="line2d_84">
      <g>
       <use xlink:href="#mf4afe4dc0a" x="90" y="153.238397" style="stroke: #000000; stroke-width: 0.6"/>
      </g>
     </g>
    </g>
    <g id="ytick_30">
     <g id="line2d_85">
      <g>
       <use xlink:href="#mf4afe4dc0a" x="90" y="148.030384" style="stroke: #000000; stroke-width: 0.6"/>
      </g>
     </g>
    </g>
    <g id="ytick_31">
     <g id="line2d_86">
      <g>
       <use xlink:href="#mf4afe4dc0a" x="90" y="143.518998" style="stroke: #000000; stroke-width: 0.6"/>
      </g>
     </g>
    </g>
    <g id="ytick_32">
     <g id="line2d_87">
      <g>
       <use xlink:href="#mf4afe4dc0a" x="90" y="139.539674" style="stroke: #000000; stroke-width: 0.6"/>
      </g>
     </g>
    </g>
    <g id="ytick_33">
     <g id="line2d_88">
      <g>
       <use xlink:href="#mf4afe4dc0a" x="90" y="112.561924" style="stroke: #000000; stroke-width: 0.6"/>
      </g>
     </g>
    </g>
    <g id="ytick_34">
     <g id="line2d_89">
      <g>
       <use xlink:href="#mf4afe4dc0a" x="90" y="98.863201" style="stroke: #000000; stroke-width: 0.6"/>
      </g>
     </g>
    </g>
    <g id="ytick_35">
     <g id="line2d_90">
      <g>
       <use xlink:href="#mf4afe4dc0a" x="90" y="89.143802" style="stroke: #000000; stroke-width: 0.6"/>
      </g>
     </g>
    </g>
    <g id="ytick_36">
     <g id="line2d_91">
      <g>
       <use xlink:href="#mf4afe4dc0a" x="90" y="81.604851" style="stroke: #000000; stroke-width: 0.6"/>
      </g>
     </g>
    </g>
    <g id="ytick_37">
     <g id="line2d_92">
      <g>
       <use xlink:href="#mf4afe4dc0a" x="90" y="75.445079" style="stroke: #000000; stroke-width: 0.6"/>
      </g>
     </g>
    </g>
    <g id="ytick_38">
     <g id="line2d_93">
      <g>
       <use xlink:href="#mf4afe4dc0a" x="90" y="70.237066" style="stroke: #000000; stroke-width: 0.6"/>
      </g>
     </g>
    </g>
    <g id="ytick_39">
     <g id="line2d_94">
      <g>
       <use xlink:href="#mf4afe4dc0a" x="90" y="65.72568" style="stroke: #000000; stroke-width: 0.6"/>
      </g>
     </g>
    </g>
    <g id="ytick_40">
     <g id="line2d_95">
      <g>
       <use xlink:href="#mf4afe4dc0a" x="90" y="61.746356" style="stroke: #000000; stroke-width: 0.6"/>
      </g>
     </g>
    </g>
    <g id="text_12">
     <!-- Frequency (log scale) -->
     <g transform="translate(59.320312 271.575625) rotate(-90) scale(0.1 -0.1)">
      <defs>
       <path id="DejaVuSans-46" d="M 628 4666 
L 3309 4666 
L 3309 4134 
L 1259 4134 
L 1259 2759 
L 3109 2759 
L 3109 2228 
L 1259 2228 
L 1259 0 
L 628 0 
L 628 4666 
z
" transform="scale(0.015625)"/>
       <path id="DejaVuSans-72" d="M 2631 2963 
Q 2534 3019 2420 3045 
Q 2306 3072 2169 3072 
Q 1681 3072 1420 2755 
Q 1159 2438 1159 1844 
L 1159 0 
L 581 0 
L 581 3500 
L 1159 3500 
L 1159 2956 
Q 1341 3275 1631 3429 
Q 1922 3584 2338 3584 
Q 2397 3584 2469 3576 
Q 2541 3569 2628 3553 
L 2631 2963 
z
" transform="scale(0.015625)"/>
       <path id="DejaVuSans-71" d="M 947 1747 
Q 947 1113 1208 752 
Q 1469 391 1925 391 
Q 2381 391 2643 752 
Q 2906 1113 2906 1747 
Q 2906 2381 2643 2742 
Q 2381 3103 1925 3103 
Q 1469 3103 1208 2742 
Q 947 2381 947 1747 
z
M 2906 525 
Q 2725 213 2448 61 
Q 2172 -91 1784 -91 
Q 1150 -91 751 415 
Q 353 922 353 1747 
Q 353 2572 751 3078 
Q 1150 3584 1784 3584 
Q 2172 3584 2448 3432 
Q 2725 3281 2906 2969 
L 2906 3500 
L 3481 3500 
L 3481 -1331 
L 2906 -1331 
L 2906 525 
z
" transform="scale(0.015625)"/>
       <path id="DejaVuSans-75" d="M 544 1381 
L 544 3500 
L 1119 3500 
L 1119 1403 
Q 1119 906 1312 657 
Q 1506 409 1894 409 
Q 2359 409 2629 706 
Q 2900 1003 2900 1516 
L 2900 3500 
L 3475 3500 
L 3475 0 
L 2900 0 
L 2900 538 
Q 2691 219 2414 64 
Q 2138 -91 1772 -91 
Q 1169 -91 856 284 
Q 544 659 544 1381 
z
M 1991 3584 
L 1991 3584 
z
" transform="scale(0.015625)"/>
       <path id="DejaVuSans-79" d="M 2059 -325 
Q 1816 -950 1584 -1140 
Q 1353 -1331 966 -1331 
L 506 -1331 
L 506 -850 
L 844 -850 
Q 1081 -850 1212 -737 
Q 1344 -625 1503 -206 
L 1606 56 
L 191 3500 
L 800 3500 
L 1894 763 
L 2988 3500 
L 3597 3500 
L 2059 -325 
z
" transform="scale(0.015625)"/>
      </defs>
      <use xlink:href="#DejaVuSans-46"/>
      <use xlink:href="#DejaVuSans-72" x="50.269531"/>
      <use xlink:href="#DejaVuSans-65" x="89.132812"/>
      <use xlink:href="#DejaVuSans-71" x="150.65625"/>
      <use xlink:href="#DejaVuSans-75" x="214.132812"/>
      <use xlink:href="#DejaVuSans-65" x="277.511719"/>
      <use xlink:href="#DejaVuSans-6e" x="339.035156"/>
      <use xlink:href="#DejaVuSans-63" x="402.414062"/>
      <use xlink:href="#DejaVuSans-79" x="457.394531"/>
      <use xlink:href="#DejaVuSans-20" x="516.574219"/>
      <use xlink:href="#DejaVuSans-28" x="548.361328"/>
      <use xlink:href="#DejaVuSans-6c" x="587.375"/>
      <use xlink:href="#DejaVuSans-6f" x="615.158203"/>
      <use xlink:href="#DejaVuSans-67" x="676.339844"/>
      <use xlink:href="#DejaVuSans-20" x="739.816406"/>
      <use xlink:href="#DejaVuSans-73" x="771.603516"/>
      <use xlink:href="#DejaVuSans-63" x="823.703125"/>
      <use xlink:href="#DejaVuSans-61" x="878.683594"/>
      <use xlink:href="#DejaVuSans-6c" x="939.962891"/>
      <use xlink:href="#DejaVuSans-65" x="967.746094"/>
      <use xlink:href="#DejaVuSans-29" x="1029.269531"/>
     </g>
    </g>
   </g>
   <g id="line2d_96">
    <path d="M 115.363636 111.711203 
L 149.203143 116.44215 
L 168.997986 117.874269 
L 183.04265 119.722914 
L 193.936538 122.940901 
L 202.837493 124.08548 
L 210.363143 141.075629 
L 216.882157 148.127051 
L 222.632336 150.223704 
L 227.776045 155.32887 
L 232.429097 162.733308 
L 236.677 163.563825 
L 240.584692 165.61204 
L 244.20265 167.191464 
L 247.570888 169.938301 
L 250.721664 170.21637 
L 253.681364 170.77947 
L 256.471843 173.130694 
L 259.111409 173.436445 
L 261.615552 178.746992 
L 263.997493 179.351395 
L 266.268604 180.847664 
L 268.438743 181.491211 
L 270.516507 182.951703 
L 272.50944 182.951703 
L 274.424199 184.054991 
L 276.266685 184.906764 
L 279.755318 188.227626 
L 281.410395 188.227626 
L 283.011197 188.386615 
L 284.561171 189.192983 
L 286.063447 196.447511 
L 287.520871 197.894194 
L 288.936045 198.106014 
L 290.31135 199.850154 
L 292.950916 201.220012 
L 294.219042 202.891706 
L 295.455059 203.137418 
L 297.837 206.505782 
L 298.985761 207.333216 
L 301.205238 207.896316 
L 302.27825 207.896316 
L 303.328185 210.55329 
L 304.356014 211.487503 
L 305.36265 213.104328 
L 306.348948 215.506319 
L 307.315714 215.506319 
L 308.263706 215.863838 
L 309.193641 217.332991 
L 310.106192 217.710484 
L 311.001999 220.068548 
L 311.881664 221.737293 
L 313.594825 222.603627 
L 314.429377 224.405933 
L 315.249902 224.405933 
L 317.631842 225.823702 
L 318.400678 225.823702 
L 319.157594 227.81164 
L 319.902954 228.327455 
L 320.637104 228.327455 
L 321.360378 229.383329 
L 322.775552 230.473269 
L 323.468047 230.473269 
L 324.150857 231.031715 
L 324.824248 231.031715 
L 326.14379 232.177086 
L 326.790423 232.177086 
L 327.428604 232.764669 
L 328.680469 232.764669 
L 329.294567 233.971412 
L 329.901035 233.971412 
L 331.091828 235.222859 
L 331.676507 235.222859 
L 332.254266 235.866407 
L 333.389668 235.866407 
L 333.947618 236.522451 
L 334.499263 236.522451 
L 335.044745 237.191487 
L 336.117757 237.191487 
L 336.645547 237.874039 
L 337.167692 237.874039 
L 337.684311 238.570666 
L 339.202157 238.570666 
L 339.697796 239.28196 
L 341.155221 239.28196 
L 342.103213 240.751114 
L 342.570395 240.751114 
L 343.945699 243.082052 
L 344.395657 243.082052 
L 344.841506 243.896193 
L 345.28332 243.896193 
L 345.721171 244.730438 
L 347.011645 244.730438 
L 347.434332 245.585805 
L 348.68087 245.585805 
L 349.089409 246.463393 
L 350.690211 246.463393 
L 351.082343 247.364385 
L 352.240186 247.364385 
L 352.62011 248.290065 
L 353.742461 248.290065 
L 354.476611 250.221174 
L 355.9126 250.221174 
L 356.265093 251.229762 
L 357.990364 251.229762 
L 358.32822 252.269389 
L 360.62993 252.269389 
L 360.950063 253.342026 
L 361.584099 253.342026 
L 361.898056 254.449837 
L 363.740542 254.449837 
L 364.040974 255.595208 
L 365.805748 255.595208 
L 366.093773 256.780775 
L 367.229175 256.780775 
L 367.508947 258.009464 
L 369.154724 258.009464 
L 369.423706 259.284529 
L 371.523818 259.284529 
L 371.780092 260.609609 
L 373.537303 260.609609 
L 373.783249 261.988788 
L 375.707442 261.988788 
L 375.94272 263.426674 
L 378.90242 263.426674 
L 379.122827 264.928486 
L 381.062953 264.928486 
L 381.273839 266.500174 
L 384.529718 266.500174 
L 384.726178 268.14856 
L 386.648477 268.14856 
L 386.836608 269.881515 
L 389.218548 269.881515 
L 389.39705 271.708187 
L 391.660062 271.708187 
L 391.829871 273.639296 
L 394.78957 273.639296 
L 394.948853 275.687512 
L 398.030007 275.687512 
L 398.179076 277.867959 
L 400.362156 277.867959 
L 400.504282 280.198897 
L 404.061379 280.198897 
L 404.193147 282.702651 
L 407.499938 282.702651 
L 407.622756 285.40691 
L 410.941904 285.40691 
L 411.056371 288.346608 
L 415.113346 288.346608 
L 415.323326 291.566682 
L 419.536295 291.566682 
L 419.728123 295.126309 
L 424.119404 295.126309 
L 424.294073 299.105634 
L 430.044251 299.105634 
L 430.19899 303.61702 
L 437.702565 303.61702 
L 437.834869 308.825032 
L 445.85816 308.825032 
L 445.970133 314.984804 
L 455.168432 314.984804 
L 455.307191 322.523756 
L 468.466312 322.523756 
L 468.607207 332.243155 
L 486.440371 332.243155 
L 486.562269 345.941878 
L 514.315643 345.941878 
L 514.439604 369.36 
L 572.364253 369.36 
L 572.364253 369.36 
" clip-path="url(#p2bd2051fbe)" style="fill: none; stroke: #1f77b4; stroke-width: 1.5; stroke-linecap: square"/>
   </g>
   <g id="line2d_97">
    <path d="M 115.363636 119.70204 
L 149.203143 121.238966 
L 168.997986 123.263986 
L 183.04265 124.204484 
L 193.936538 134.752565 
L 202.837493 148.614581 
L 210.363143 150.069551 
L 216.882157 158.530979 
L 222.632336 159.465807 
L 227.776045 165.45 
L 232.429097 165.530923 
L 236.677 166.350993 
L 240.584692 168.937859 
L 244.20265 170.309571 
L 247.570888 170.684966 
L 250.721664 174.160811 
L 253.681364 176.996072 
L 256.471843 178.508227 
L 259.111409 183.361225 
L 261.615552 185.050838 
L 263.997493 185.340841 
L 266.268604 187.289087 
L 268.438743 190.86586 
L 270.516507 191.037795 
L 272.50944 192.625904 
L 276.266685 192.989189 
L 278.042157 195.647824 
L 279.755318 197.894194 
L 281.410395 198.31917 
L 283.011197 200.30063 
L 284.561171 201.453821 
L 286.063447 203.38493 
L 287.520871 205.698129 
L 288.936045 208.46896 
L 290.31135 211.487503 
L 291.64897 212.448284 
L 292.950916 213.104328 
L 294.219042 214.112917 
L 295.455059 215.506319 
L 296.660555 216.22518 
L 298.985761 216.95967 
L 300.108111 217.710484 
L 301.205238 219.66393 
L 302.27825 220.892618 
L 303.328185 221.737293 
L 305.36265 222.603627 
L 306.348948 222.603627 
L 307.315714 223.946263 
L 310.106192 225.344471 
L 311.001999 226.309828 
L 311.881664 226.309828 
L 312.745759 226.803052 
L 313.594825 227.81164 
L 315.249902 228.851267 
L 316.056864 228.851267 
L 316.850704 230.473269 
L 317.631842 230.473269 
L 318.400678 232.177086 
L 320.637104 235.866407 
L 321.360378 235.866407 
L 322.073093 236.522451 
L 322.775552 236.522451 
L 323.468047 237.191487 
L 325.488477 237.191487 
L 326.790423 238.570666 
L 327.428604 238.570666 
L 328.058549 239.28196 
L 329.294567 239.28196 
L 329.901035 240.008552 
L 330.500062 240.008552 
L 331.676507 241.510364 
L 332.254266 241.510364 
L 332.825268 242.287069 
L 333.389668 242.287069 
L 333.947618 243.082052 
L 334.499263 243.082052 
L 336.117757 245.585805 
L 336.645547 245.585805 
L 337.167692 246.463393 
L 337.684311 246.463393 
L 338.195521 247.364385 
L 339.697796 247.364385 
L 340.188455 248.290065 
L 341.631518 248.290065 
L 342.103213 249.241824 
L 343.945699 249.241824 
L 344.395657 250.221174 
L 345.28332 250.221174 
L 346.15513 252.269389 
L 348.268884 252.269389 
L 348.68087 253.342026 
L 350.690211 253.342026 
L 351.082343 254.449837 
L 353.371203 254.449837 
L 354.110916 256.780775 
L 355.9126 256.780775 
L 356.265093 258.009464 
L 357.650153 258.009464 
L 357.990364 259.284529 
L 359.65674 259.284529 
L 359.983297 260.609609 
L 361.268111 260.609609 
L 361.584099 261.988788 
L 362.519976 261.988788 
L 362.82799 263.426674 
L 364.040974 263.426674 
L 364.339569 264.928486 
L 366.664775 264.928486 
L 366.94779 266.500174 
L 369.423706 266.500174 
L 369.691214 268.14856 
L 373.041664 268.14856 
L 373.290112 269.881515 
L 375.233457 269.881515 
L 375.471025 271.708187 
L 379.342243 271.708187 
L 379.560678 273.639296 
L 381.483819 273.639296 
L 381.692899 275.687512 
L 384.529718 275.687512 
L 384.726178 277.867959 
L 387.21071 277.867959 
L 387.396692 280.198897 
L 389.752107 280.198897 
L 389.928671 282.702651 
L 392.335783 282.702651 
L 392.503262 285.40691 
L 396.973581 285.40691 
L 397.125905 288.346608 
L 400.787297 288.346608 
L 400.928193 291.566682 
L 404.586331 291.566682 
L 404.716692 295.126309 
L 409.072964 295.126309 
L 409.191893 299.105634 
L 415.740594 299.105634 
L 415.947898 303.61702 
L 422.789074 303.61702 
L 422.968559 308.825032 
L 431.944105 308.825032 
L 432.092947 314.984804 
L 442.971972 314.984804 
L 443.090755 322.523756 
L 457.298277 322.523756 
L 457.431121 332.243155 
L 476.213186 332.243155 
L 476.333432 345.941878 
L 506.769302 345.941878 
L 506.881846 369.36 
L 572.259151 369.36 
L 572.259151 369.36 
" clip-path="url(#p2bd2051fbe)" style="fill: none; stroke: #ff7f0e; stroke-width: 1.5; stroke-linecap: square"/>
   </g>
   <g id="line2d_98">
    <path d="M 115.363636 66.96 
L 149.203143 68.749947 
L 168.997986 71.666559 
L 183.04265 73.391564 
L 193.936538 79.642599 
L 202.837493 86.747609 
L 210.363143 93.39556 
L 216.882157 102.598467 
L 222.632336 104.499992 
L 232.429097 113.486666 
L 236.677 117.598631 
L 240.584692 117.677156 
L 244.20265 121.173512 
L 247.570888 122.21382 
L 250.721664 123.919575 
L 253.681364 123.919575 
L 256.471843 125.098388 
L 259.111409 126.934583 
L 261.615552 132.94476 
L 263.997493 133.85243 
L 266.268604 134.460612 
L 268.438743 135.24483 
L 270.516507 136.731619 
L 272.50944 137.218747 
L 274.424199 137.324052 
L 278.042157 141.312166 
L 279.755318 142.397567 
L 281.410395 142.438444 
L 283.011197 145.385579 
L 284.561171 146.612615 
L 286.063447 147.172603 
L 287.520871 149.009734 
L 288.936045 149.712572 
L 290.31135 154.151566 
L 291.64897 156.486637 
L 292.950916 159.128962 
L 294.219042 160.777348 
L 295.455059 161.560602 
L 297.837 166.102875 
L 298.985761 167.021689 
L 301.205238 167.619673 
L 302.27825 167.879228 
L 303.328185 168.670075 
L 305.36265 171.739342 
L 306.348948 171.836846 
L 307.315714 173.53898 
L 308.263706 174.901048 
L 311.001999 177.918592 
L 311.881664 178.389474 
L 314.429377 178.987458 
L 315.249902 179.596217 
L 316.056864 180.593638 
L 316.850704 180.847664 
L 318.400678 181.103613 
L 319.157594 181.491211 
L 320.637104 182.816291 
L 321.360378 182.951703 
L 322.073093 183.224166 
L 322.775552 184.763302 
L 324.150857 185.928425 
L 324.824248 186.076932 
L 325.488477 186.375918 
L 326.14379 186.526409 
L 327.428604 186.526409 
L 328.058549 187.289087 
L 329.294567 188.227626 
L 329.901035 188.386615 
L 330.500062 189.192983 
L 331.091828 189.356592 
L 331.676507 190.019068 
L 332.254266 190.355242 
L 332.825268 191.734422 
L 333.389668 191.910846 
L 333.947618 193.356423 
L 334.499263 193.541548 
L 335.044745 193.541548 
L 335.584199 193.727693 
L 336.117757 193.727693 
L 336.645547 193.914869 
L 337.167692 194.482701 
L 337.684311 195.845978 
L 338.195521 196.447511 
L 339.697796 197.059949 
L 340.188455 197.474496 
L 341.155221 197.894194 
L 341.631518 197.894194 
L 342.103213 198.31917 
L 342.570395 198.31917 
L 343.033148 198.96683 
L 343.491556 199.185505 
L 343.945699 199.850154 
L 344.395657 200.074641 
L 344.841506 200.074641 
L 345.721171 200.528141 
L 346.15513 200.528141 
L 347.434332 201.220012 
L 347.853392 201.926349 
L 348.268884 201.926349 
L 349.089409 202.891706 
L 349.494557 202.891706 
L 349.896371 203.137418 
L 350.294905 203.634268 
L 350.690211 203.634268 
L 351.082343 204.138534 
L 352.240186 204.909333 
L 352.997101 206.234413 
L 355.199885 207.896316 
L 355.557543 208.46896 
L 355.9126 208.46896 
L 356.265093 209.051478 
L 356.962534 209.644216 
L 357.307554 209.644216 
L 358.32822 210.55329 
L 358.996999 210.55329 
L 359.327984 210.861833 
L 359.65674 210.861833 
L 359.983297 211.17322 
L 360.307684 211.17322 
L 360.62993 211.487503 
L 361.898056 211.487503 
L 362.210006 211.804737 
L 362.519976 211.804737 
L 362.82799 212.124979 
L 364.339569 212.124979 
L 364.636349 212.448284 
L 364.931335 212.448284 
L 365.22455 213.104328 
L 365.516014 213.104328 
L 365.805748 213.43719 
L 366.380109 213.43719 
L 366.664775 213.773364 
L 368.063727 213.773364 
L 368.33877 214.112917 
L 369.154724 214.112917 
L 369.423706 214.455917 
L 369.691214 214.455917 
L 369.957264 215.152544 
L 370.485054 215.152544 
L 370.746824 215.506319 
L 371.266192 215.506319 
L 371.523818 215.863838 
L 371.780092 215.863838 
L 372.035028 216.590429 
L 372.54094 216.590429 
L 372.791944 216.95967 
L 373.041664 216.95967 
L 373.290112 217.332991 
L 373.783249 217.332991 
L 374.271454 218.092242 
L 374.754825 218.092242 
L 374.994728 218.478362 
L 376.409902 218.478362 
L 376.641827 218.868947 
L 376.872655 218.868947 
L 377.102397 219.2641 
L 378.010704 219.2641 
L 378.235164 219.66393 
L 378.681013 219.66393 
L 379.122827 220.478071 
L 379.77814 220.478071 
L 379.994637 220.892618 
L 380.210179 220.892618 
L 380.424773 221.312316 
L 380.638428 221.312316 
L 380.851152 221.737293 
L 381.062953 221.737293 
L 381.273839 222.167683 
L 381.692899 222.167683 
L 381.901087 222.603627 
L 382.520377 222.603627 
L 382.928916 223.492763 
L 384.134412 223.492763 
L 384.332465 223.946263 
L 384.529718 223.946263 
L 384.726178 224.405933 
L 385.310856 224.405933 
L 385.888616 225.823702 
L 386.270024 225.823702 
L 386.459617 226.309828 
L 387.024018 226.309828 
L 387.21071 226.803052 
L 387.396692 226.803052 
L 387.766543 227.81164 
L 388.316118 227.81164 
L 388.497944 228.327455 
L 389.218548 228.327455 
L 389.39705 228.851267 
L 390.279897 228.851267 
L 390.454566 229.383329 
L 390.628613 229.383329 
L 390.802041 229.923904 
L 391.999091 229.923904 
L 392.167727 230.473269 
L 393.002279 230.473269 
L 393.167491 231.031715 
L 393.822804 231.031715 
L 393.985267 231.599547 
L 394.469437 231.599547 
L 394.629766 232.177086 
L 395.265868 232.177086 
L 395.423606 232.764669 
L 396.204744 232.764669 
L 396.359483 233.362653 
L 396.667497 233.362653 
L 396.820779 233.971412 
L 396.973581 233.971412 
L 397.277757 235.222859 
L 397.880481 235.222859 
L 398.030007 235.866407 
L 398.917669 235.866407 
L 399.064057 236.522451 
L 399.355521 236.522451 
L 399.500603 237.191487 
L 400.504282 237.191487 
L 400.645995 237.874039 
L 401.068682 237.874039 
L 401.208768 238.570666 
L 402.587959 238.570666 
L 402.723759 239.28196 
L 403.39715 239.28196 
L 403.530721 240.008552 
L 404.324561 240.008552 
L 404.455622 240.751114 
L 405.874535 240.751114 
L 406.001506 241.510364 
L 406.380447 241.510364 
L 406.50611 242.287069 
L 408.110961 242.287069 
L 408.232253 243.082052 
L 408.834235 243.082052 
L 408.953745 243.896193 
L 410.133032 243.896193 
L 410.249409 244.730438 
L 411.511573 244.730438 
L 411.624713 245.585805 
L 412.741927 245.585805 
L 412.962334 246.463393 
L 414.157101 246.463393 
L 414.371224 247.364385 
L 415.427978 247.364385 
L 415.636611 248.290065 
L 416.971418 248.290065 
L 417.173571 249.241824 
L 418.270698 249.241824 
L 418.467554 250.221174 
L 419.823755 250.221174 
L 420.014458 251.229762 
L 420.95696 251.229762 
L 421.143297 252.269389 
L 422.246623 252.269389 
L 422.42811 253.342026 
L 423.325563 253.342026 
L 423.503091 254.449837 
L 425.669378 254.449837 
L 425.838598 255.595208 
L 427.662311 255.595208 
L 427.824774 256.780775 
L 428.947125 256.780775 
L 429.105375 258.009464 
L 431.719988 258.009464 
L 431.869514 259.284529 
L 433.122325 259.284529 
L 433.267623 260.609609 
L 435.118168 260.609609 
L 435.257654 261.988788 
L 437.768761 261.988788 
L 437.900886 263.426674 
L 439.967654 263.426674 
L 440.093967 264.928486 
L 441.889709 264.928486 
L 442.011152 266.500174 
L 444.262963 266.500174 
L 444.37865 268.14856 
L 446.137612 268.14856 
L 446.248946 269.881515 
L 448.689103 269.881515 
L 448.847524 271.708187 
L 451.264599 271.708187 
L 451.414892 273.639296 
L 453.806359 273.639296 
L 453.949039 275.687512 
L 457.0315 275.687512 
L 457.16507 277.867959 
L 460.432422 277.867959 
L 460.557016 280.198897 
L 464.154231 280.198897 
L 464.26969 282.702651 
L 467.934304 282.702651 
L 468.07674 285.40691 
L 471.176376 285.40691 
L 471.309674 288.346608 
L 475.668381 288.346608 
L 475.789975 291.566682 
L 480.531269 291.566682 
L 480.668829 295.126309 
L 486.489166 295.126309 
L 486.610943 299.105634 
L 492.665582 299.105634 
L 492.794339 303.61702 
L 500.197371 303.61702 
L 500.326111 308.825032 
L 508.941541 308.825032 
L 509.064552 314.984804 
L 518.629009 314.984804 
L 518.7425 322.523756 
L 531.572458 322.523756 
L 531.688535 332.243155 
L 547.982458 332.243155 
L 548.099955 345.941878 
L 572.347452 345.941878 
L 572.460748 369.36 
L 622.636364 369.36 
L 622.636364 369.36 
" clip-path="url(#p2bd2051fbe)" style="fill: none; stroke: #2ca02c; stroke-width: 1.5; stroke-linecap: square"/>
   </g>
   <g id="patch_3">
    <path d="M 90 384.48 
L 90 51.84 
" style="fill: none; stroke: #000000; stroke-width: 0.8; stroke-linejoin: miter; stroke-linecap: square"/>
   </g>
   <g id="patch_4">
    <path d="M 648 384.48 
L 648 51.84 
" style="fill: none; stroke: #000000; stroke-width: 0.8; stroke-linejoin: miter; stroke-linecap: square"/>
   </g>
   <g id="patch_5">
    <path d="M 90 384.48 
L 648 384.48 
" style="fill: none; stroke: #000000; stroke-width: 0.8; stroke-linejoin: miter; stroke-linecap: square"/>
   </g>
   <g id="patch_6">
    <path d="M 90 51.84 
L 648 51.84 
" style="fill: none; stroke: #000000; stroke-width: 0.8; stroke-linejoin: miter; stroke-linecap: square"/>
   </g>
   <g id="text_13">
    <!-- Zipf's Law -->
    <g transform="translate(338.693438 45.84) scale(0.12 -0.12)">
     <defs>
      <path id="DejaVuSans-5a" d="M 359 4666 
L 4025 4666 
L 4025 4184 
L 1075 531 
L 4097 531 
L 4097 0 
L 288 0 
L 288 481 
L 3238 4134 
L 359 4134 
L 359 4666 
z
" transform="scale(0.015625)"/>
      <path id="DejaVuSans-69" d="M 603 3500 
L 1178 3500 
L 1178 0 
L 603 0 
L 603 3500 
z
M 603 4863 
L 1178 4863 
L 1178 4134 
L 603 4134 
L 603 4863 
z
" transform="scale(0.015625)"/>
      <path id="DejaVuSans-70" d="M 1159 525 
L 1159 -1331 
L 581 -1331 
L 581 3500 
L 1159 3500 
L 1159 2969 
Q 1341 3281 1617 3432 
Q 1894 3584 2278 3584 
Q 2916 3584 3314 3078 
Q 3713 2572 3713 1747 
Q 3713 922 3314 415 
Q 2916 -91 2278 -91 
Q 1894 -91 1617 61 
Q 1341 213 1159 525 
z
M 3116 1747 
Q 3116 2381 2855 2742 
Q 2594 3103 2138 3103 
Q 1681 3103 1420 2742 
Q 1159 2381 1159 1747 
Q 1159 1113 1420 752 
Q 1681 391 2138 391 
Q 2594 391 2855 752 
Q 3116 1113 3116 1747 
z
" transform="scale(0.015625)"/>
      <path id="DejaVuSans-66" d="M 2375 4863 
L 2375 4384 
L 1825 4384 
Q 1516 4384 1395 4259 
Q 1275 4134 1275 3809 
L 1275 3500 
L 2222 3500 
L 2222 3053 
L 1275 3053 
L 1275 0 
L 697 0 
L 697 3053 
L 147 3053 
L 147 3500 
L 697 3500 
L 697 3744 
Q 697 4328 969 4595 
Q 1241 4863 1831 4863 
L 2375 4863 
z
" transform="scale(0.015625)"/>
      <path id="DejaVuSans-27" d="M 1147 4666 
L 1147 2931 
L 616 2931 
L 616 4666 
L 1147 4666 
z
" transform="scale(0.015625)"/>
      <path id="DejaVuSans-4c" d="M 628 4666 
L 1259 4666 
L 1259 531 
L 3531 531 
L 3531 0 
L 628 0 
L 628 4666 
z
" transform="scale(0.015625)"/>
      <path id="DejaVuSans-77" d="M 269 3500 
L 844 3500 
L 1563 769 
L 2278 3500 
L 2956 3500 
L 3675 769 
L 4391 3500 
L 4966 3500 
L 4050 0 
L 3372 0 
L 2619 2869 
L 1863 0 
L 1184 0 
L 269 3500 
z
" transform="scale(0.015625)"/>
     </defs>
     <use xlink:href="#DejaVuSans-5a"/>
     <use xlink:href="#DejaVuSans-69" x="68.505859"/>
     <use xlink:href="#DejaVuSans-70" x="96.289062"/>
     <use xlink:href="#DejaVuSans-66" x="159.765625"/>
     <use xlink:href="#DejaVuSans-27" x="194.970703"/>
     <use xlink:href="#DejaVuSans-73" x="222.460938"/>
     <use xlink:href="#DejaVuSans-20" x="274.560547"/>
     <use xlink:href="#DejaVuSans-4c" x="306.347656"/>
     <use xlink:href="#DejaVuSans-61" x="362.060547"/>
     <use xlink:href="#DejaVuSans-77" x="423.339844"/>
    </g>
   </g>
   <g id="legend_1">
    <g id="patch_7">
     <path d="M 563.517187 103.874375 
L 641 103.874375 
Q 643 103.874375 643 101.874375 
L 643 58.84 
Q 643 56.84 641 56.84 
L 563.517187 56.84 
Q 561.517187 56.84 561.517187 58.84 
L 561.517187 101.874375 
Q 561.517187 103.874375 563.517187 103.874375 
z
" style="fill: #ffffff; opacity: 0.8; stroke: #cccccc; stroke-linejoin: miter"/>
    </g>
    <g id="line2d_99">
     <path d="M 565.517187 64.938437 
L 575.517187 64.938437 
L 585.517187 64.938437 
" style="fill: none; stroke: #1f77b4; stroke-width: 1.5; stroke-linecap: square"/>
    </g>
    <g id="text_14">
     <!-- Perdicao -->
     <g transform="translate(593.517187 68.438437) scale(0.1 -0.1)">
      <defs>
       <path id="DejaVuSans-50" d="M 1259 4147 
L 1259 2394 
L 2053 2394 
Q 2494 2394 2734 2622 
Q 2975 2850 2975 3272 
Q 2975 3691 2734 3919 
Q 2494 4147 2053 4147 
L 1259 4147 
z
M 628 4666 
L 2053 4666 
Q 2838 4666 3239 4311 
Q 3641 3956 3641 3272 
Q 3641 2581 3239 2228 
Q 2838 1875 2053 1875 
L 1259 1875 
L 1259 0 
L 628 0 
L 628 4666 
z
" transform="scale(0.015625)"/>
       <path id="DejaVuSans-64" d="M 2906 2969 
L 2906 4863 
L 3481 4863 
L 3481 0 
L 2906 0 
L 2906 525 
Q 2725 213 2448 61 
Q 2172 -91 1784 -91 
Q 1150 -91 751 415 
Q 353 922 353 1747 
Q 353 2572 751 3078 
Q 1150 3584 1784 3584 
Q 2172 3584 2448 3432 
Q 2725 3281 2906 2969 
z
M 947 1747 
Q 947 1113 1208 752 
Q 1469 391 1925 391 
Q 2381 391 2643 752 
Q 2906 1113 2906 1747 
Q 2906 2381 2643 2742 
Q 2381 3103 1925 3103 
Q 1469 3103 1208 2742 
Q 947 2381 947 1747 
z
" transform="scale(0.015625)"/>
      </defs>
      <use xlink:href="#DejaVuSans-50"/>
      <use xlink:href="#DejaVuSans-65" x="56.677734"/>
      <use xlink:href="#DejaVuSans-72" x="118.201172"/>
      <use xlink:href="#DejaVuSans-64" x="157.564453"/>
      <use xlink:href="#DejaVuSans-69" x="221.041016"/>
      <use xlink:href="#DejaVuSans-63" x="248.824219"/>
      <use xlink:href="#DejaVuSans-61" x="303.804688"/>
      <use xlink:href="#DejaVuSans-6f" x="365.083984"/>
     </g>
    </g>
    <g id="line2d_100">
     <path d="M 565.517187 79.616562 
L 575.517187 79.616562 
L 585.517187 79.616562 
" style="fill: none; stroke: #ff7f0e; stroke-width: 1.5; stroke-linecap: square"/>
    </g>
    <g id="text_15">
     <!-- Mulheres -->
     <g transform="translate(593.517187 83.116562) scale(0.1 -0.1)">
      <defs>
       <path id="DejaVuSans-4d" d="M 628 4666 
L 1569 4666 
L 2759 1491 
L 3956 4666 
L 4897 4666 
L 4897 0 
L 4281 0 
L 4281 4097 
L 3078 897 
L 2444 897 
L 1241 4097 
L 1241 0 
L 628 0 
L 628 4666 
z
" transform="scale(0.015625)"/>
       <path id="DejaVuSans-68" d="M 3513 2113 
L 3513 0 
L 2938 0 
L 2938 2094 
Q 2938 2591 2744 2837 
Q 2550 3084 2163 3084 
Q 1697 3084 1428 2787 
Q 1159 2491 1159 1978 
L 1159 0 
L 581 0 
L 581 4863 
L 1159 4863 
L 1159 2956 
Q 1366 3272 1645 3428 
Q 1925 3584 2291 3584 
Q 2894 3584 3203 3211 
Q 3513 2838 3513 2113 
z
" transform="scale(0.015625)"/>
      </defs>
      <use xlink:href="#DejaVuSans-4d"/>
      <use xlink:href="#DejaVuSans-75" x="86.279297"/>
      <use xlink:href="#DejaVuSans-6c" x="149.658203"/>
      <use xlink:href="#DejaVuSans-68" x="177.441406"/>
      <use xlink:href="#DejaVuSans-65" x="240.820312"/>
      <use xlink:href="#DejaVuSans-72" x="302.34375"/>
      <use xlink:href="#DejaVuSans-65" x="341.207031"/>
      <use xlink:href="#DejaVuSans-73" x="402.730469"/>
     </g>
    </g>
    <g id="line2d_101">
     <path d="M 565.517187 94.294687 
L 575.517187 94.294687 
L 585.517187 94.294687 
" style="fill: none; stroke: #2ca02c; stroke-width: 1.5; stroke-linecap: square"/>
    </g>
    <g id="text_16">
     <!-- Misterios -->
     <g transform="translate(593.517187 97.794687) scale(0.1 -0.1)">
      <defs>
       <path id="DejaVuSans-74" d="M 1172 4494 
L 1172 3500 
L 2356 3500 
L 2356 3053 
L 1172 3053 
L 1172 1153 
Q 1172 725 1289 603 
Q 1406 481 1766 481 
L 2356 481 
L 2356 0 
L 1766 0 
Q 1100 0 847 248 
Q 594 497 594 1153 
L 594 3053 
L 172 3053 
L 172 3500 
L 594 3500 
L 594 4494 
L 1172 4494 
z
" transform="scale(0.015625)"/>
      </defs>
      <use xlink:href="#DejaVuSans-4d"/>
      <use xlink:href="#DejaVuSans-69" x="86.279297"/>
      <use xlink:href="#DejaVuSans-73" x="114.0625"/>
      <use xlink:href="#DejaVuSans-74" x="166.162109"/>
      <use xlink:href="#DejaVuSans-65" x="205.371094"/>
      <use xlink:href="#DejaVuSans-72" x="266.894531"/>
      <use xlink:href="#DejaVuSans-69" x="308.007812"/>
      <use xlink:href="#DejaVuSans-6f" x="335.791016"/>
      <use xlink:href="#DejaVuSans-73" x="396.972656"/>
     </g>
    </g>
   </g>
  </g>
 </g>
 <defs>
  <clipPath id="p2bd2051fbe">
   <rect x="90" y="51.84" width="558" height="332.64"/>
  </clipPath>
 </defs>
</svg>
