<?xml version="1.0" encoding="utf-8" standalone="no"?>
<!DOCTYPE svg PUBLIC "-//W3C//DTD SVG 1.1//EN"
  "http://www.w3.org/Graphics/SVG/1.1/DTD/svg11.dtd">
<svg xmlns:xlink="http://www.w3.org/1999/xlink" width="720pt" height="432pt" viewBox="0 0 720 432" xmlns="http://www.w3.org/2000/svg" version="1.1">
 <metadata>
  <rdf:RDF xmlns:dc="http://purl.org/dc/elements/1.1/" xmlns:cc="http://creativecommons.org/ns#" xmlns:rdf="http://www.w3.org/1999/02/22-rdf-syntax-ns#">
   <cc:Work>
    <dc:type rdf:resource="http://purl.org/dc/dcmitype/StillImage"/>
    <dc:date>2025-10-23T15:27:05.853761</dc:date>
    <dc:format>image/svg+xml</dc:format>
    <dc:creator>
     <cc:Agent>
      <dc:title>Matplotlib v3.9.4, https://matplotlib.org/</dc:title>
     </cc:Agent>
    </dc:creator>
   </cc:Work>
  </rdf:RDF>
 </metadata>
 <defs>
  <style type="text/css">*{stroke-linejoin: round; stroke-linecap: butt}</style>
 </defs>
 <g id="figure_1">
  <g id="patch_1">
   <path d="M 0 432 
L 720 432 
L 720 0 
L 0 0 
z
" style="fill: #ffffff"/>
  </g>
  <g id="axes_1">
   <g id="patch_2">
    <path d="M 90 384.48 
L 648 384.48 
L 648 51.84 
L 90 51.84 
z
" style="fill: #ffffff"/>
   </g>
   <g id="matplotlib.axis_1">
    <g id="xtick_1">
     <g id="line2d_1">
      <path d="M 115.363636 384.48 
L 115.363636 51.84 
" clip-path="url(#p919c1dbbbe)" style="fill: none; stroke: #b0b0b0; stroke-width: 0.8; stroke-linecap: square"/>
     </g>
     <g id="line2d_2">
      <defs>
       <path id="m7b3a7bbc73" d="M 0 0 
L 0 3.5 
" style="stroke: #000000; stroke-width: 0.8"/>
      </defs>
      <g>
       <use xlink:href="#m7b3a7bbc73" x="115.363636" y="384.48" style="stroke: #000000; stroke-width: 0.8"/>
      </g>
     </g>
     <g id="text_1">
      <!-- $\mathdefault{10^{0}}$ -->
      <g transform="translate(106.563636 399.078438) scale(0.1 -0.1)">
       <defs>
        <path id="DejaVuSans-31" d="M 794 531 
L 1825 531 
L 1825 4091 
L 703 3866 
L 703 4441 
L 1819 4666 
L 2450 4666 
L 2450 531 
L 3481 531 
L 3481 0 
L 794 0 
L 794 531 
z
" transform="scale(0.015625)"/>
        <path id="DejaVuSans-30" d="M 2034 4250 
Q 1547 4250 1301 3770 
Q 1056 3291 1056 2328 
Q 1056 1369 1301 889 
Q 1547 409 2034 409 
Q 2525 409 2770 889 
Q 3016 1369 3016 2328 
Q 3016 3291 2770 3770 
Q 2525 4250 2034 4250 
z
M 2034 4750 
Q 2819 4750 3233 4129 
Q 3647 3509 3647 2328 
Q 3647 1150 3233 529 
Q 2819 -91 2034 -91 
Q 1250 -91 836 529 
Q 422 1150 422 2328 
Q 422 3509 836 4129 
Q 1250 4750 2034 4750 
z
" transform="scale(0.015625)"/>
       </defs>
       <use xlink:href="#DejaVuSans-31" transform="translate(0 0.765625)"/>
       <use xlink:href="#DejaVuSans-30" transform="translate(63.623047 0.765625)"/>
       <use xlink:href="#DejaVuSans-30" transform="translate(128.203125 39.046875) scale(0.7)"/>
      </g>
     </g>
    </g>
    <g id="xtick_2">
     <g id="line2d_3">
      <path d="M 231.93924 384.48 
L 231.93924 51.84 
" clip-path="url(#p919c1dbbbe)" style="fill: none; stroke: #b0b0b0; stroke-width: 0.8; stroke-linecap: square"/>
     </g>
     <g id="line2d_4">
      <g>
       <use xlink:href="#m7b3a7bbc73" x="231.93924" y="384.48" style="stroke: #000000; stroke-width: 0.8"/>
      </g>
     </g>
     <g id="text_2">
      <!-- $\mathdefault{10^{1}}$ -->
      <g transform="translate(223.13924 399.078438) scale(0.1 -0.1)">
       <use xlink:href="#DejaVuSans-31" transform="translate(0 0.684375)"/>
       <use xlink:href="#DejaVuSans-30" transform="translate(63.623047 0.684375)"/>
       <use xlink:href="#DejaVuSans-31" transform="translate(128.203125 38.965625) scale(0.7)"/>
      </g>
     </g>
    </g>
    <g id="xtick_3">
     <g id="line2d_5">
      <path d="M 348.514844 384.48 
L 348.514844 51.84 
" clip-path="url(#p919c1dbbbe)" style="fill: none; stroke: #b0b0b0; stroke-width: 0.8; stroke-linecap: square"/>
     </g>
     <g id="line2d_6">
      <g>
       <use xlink:href="#m7b3a7bbc73" x="348.514844" y="384.48" style="stroke: #000000; stroke-width: 0.8"/>
      </g>
     </g>
     <g id="text_3">
      <!-- $\mathdefault{10^{2}}$ -->
      <g transform="translate(339.714844 399.078438) scale(0.1 -0.1)">
       <defs>
        <path id="DejaVuSans-32" d="M 1228 531 
L 3431 531 
L 3431 0 
L 469 0 
L 469 531 
Q 828 903 1448 1529 
Q 2069 2156 2228 2338 
Q 2531 2678 2651 2914 
Q 2772 3150 2772 3378 
Q 2772 3750 2511 3984 
Q 2250 4219 1831 4219 
Q 1534 4219 1204 4116 
Q 875 4013 500 3803 
L 500 4441 
Q 881 4594 1212 4672 
Q 1544 4750 1819 4750 
Q 2544 4750 2975 4387 
Q 3406 4025 3406 3419 
Q 3406 3131 3298 2873 
Q 3191 2616 2906 2266 
Q 2828 2175 2409 1742 
Q 1991 1309 1228 531 
z
" transform="scale(0.015625)"/>
       </defs>
       <use xlink:href="#DejaVuSans-31" transform="translate(0 0.765625)"/>
       <use xlink:href="#DejaVuSans-30" transform="translate(63.623047 0.765625)"/>
       <use xlink:href="#DejaVuSans-32" transform="translate(128.203125 39.046875) scale(0.7)"/>
      </g>
     </g>
    </g>
    <g id="xtick_4">
     <g id="line2d_7">
      <path d="M 465.090448 384.48 
L 465.090448 51.84 
" clip-path="url(#p919c1dbbbe)" style="fill: none; stroke: #b0b0b0; stroke-width: 0.8; stroke-linecap: square"/>
     </g>
     <g id="line2d_8">
      <g>
       <use xlink:href="#m7b3a7bbc73" x="465.090448" y="384.48" style="stroke: #000000; stroke-width: 0.8"/>
      </g>
     </g>
     <g id="text_4">
      <!-- $\mathdefault{10^{3}}$ -->
      <g transform="translate(456.290448 399.078438) scale(0.1 -0.1)">
       <defs>
        <path id="DejaVuSans-33" d="M 2597 2516 
Q 3050 2419 3304 2112 
Q 3559 1806 3559 1356 
Q 3559 666 3084 287 
Q 2609 -91 1734 -91 
Q 1441 -91 1130 -33 
Q 819 25 488 141 
L 488 750 
Q 750 597 1062 519 
Q 1375 441 1716 441 
Q 2309 441 2620 675 
Q 2931 909 2931 1356 
Q 2931 1769 2642 2001 
Q 2353 2234 1838 2234 
L 1294 2234 
L 1294 2753 
L 1863 2753 
Q 2328 2753 2575 2939 
Q 2822 3125 2822 3475 
Q 2822 3834 2567 4026 
Q 2313 4219 1838 4219 
Q 1578 4219 1281 4162 
Q 984 4106 628 3988 
L 628 4550 
Q 988 4650 1302 4700 
Q 1616 4750 1894 4750 
Q 2613 4750 3031 4423 
Q 3450 4097 3450 3541 
Q 3450 3153 3228 2886 
Q 3006 2619 2597 2516 
z
" transform="scale(0.015625)"/>
       </defs>
       <use xlink:href="#DejaVuSans-31" transform="translate(0 0.765625)"/>
       <use xlink:href="#DejaVuSans-30" transform="translate(63.623047 0.765625)"/>
       <use xlink:href="#DejaVuSans-33" transform="translate(128.203125 39.046875) scale(0.7)"/>
      </g>
     </g>
    </g>
    <g id="xtick_5">
     <g id="line2d_9">
      <path d="M 581.666052 384.48 
L 581.666052 51.84 
" clip-path="url(#p919c1dbbbe)" style="fill: none; stroke: #b0b0b0; stroke-width: 0.8; stroke-linecap: square"/>
     </g>
     <g id="line2d_10">
      <g>
       <use xlink:href="#m7b3a7bbc73" x="581.666052" y="384.48" style="stroke: #000000; stroke-width: 0.8"/>
      </g>
     </g>
     <g id="text_5">
      <!-- $\mathdefault{10^{4}}$ -->
      <g transform="translate(572.866052 399.078438) scale(0.1 -0.1)">
       <defs>
        <path id="DejaVuSans-34" d="M 2419 4116 
L 825 1625 
L 2419 1625 
L 2419 4116 
z
M 2253 4666 
L 3047 4666 
L 3047 1625 
L 3713 1625 
L 3713 1100 
L 3047 1100 
L 3047 0 
L 2419 0 
L 2419 1100 
L 313 1100 
L 313 1709 
L 2253 4666 
z
" transform="scale(0.015625)"/>
       </defs>
       <use xlink:href="#DejaVuSans-31" transform="translate(0 0.684375)"/>
       <use xlink:href="#DejaVuSans-30" transform="translate(63.623047 0.684375)"/>
       <use xlink:href="#DejaVuSans-34" transform="translate(128.203125 38.965625) scale(0.7)"/>
      </g>
     </g>
    </g>
    <g id="xtick_6">
     <g id="line2d_11">
      <defs>
       <path id="mb1ee804aa6" d="M 0 0 
L 0 2 
" style="stroke: #000000; stroke-width: 0.6"/>
      </defs>
      <g>
       <use xlink:href="#mb1ee804aa6" x="97.305847" y="384.48" style="stroke: #000000; stroke-width: 0.6"/>
      </g>
     </g>
    </g>
    <g id="xtick_7">
     <g id="line2d_12">
      <g>
       <use xlink:href="#mb1ee804aa6" x="104.066293" y="384.48" style="stroke: #000000; stroke-width: 0.6"/>
      </g>
     </g>
    </g>
    <g id="xtick_8">
     <g id="line2d_13">
      <g>
       <use xlink:href="#mb1ee804aa6" x="110.029429" y="384.48" style="stroke: #000000; stroke-width: 0.6"/>
      </g>
     </g>
    </g>
    <g id="xtick_9">
     <g id="line2d_14">
      <g>
       <use xlink:href="#mb1ee804aa6" x="150.45639" y="384.48" style="stroke: #000000; stroke-width: 0.6"/>
      </g>
     </g>
    </g>
    <g id="xtick_10">
     <g id="line2d_15">
      <g>
       <use xlink:href="#mb1ee804aa6" x="170.984335" y="384.48" style="stroke: #000000; stroke-width: 0.6"/>
      </g>
     </g>
    </g>
    <g id="xtick_11">
     <g id="line2d_16">
      <g>
       <use xlink:href="#mb1ee804aa6" x="185.549143" y="384.48" style="stroke: #000000; stroke-width: 0.6"/>
      </g>
     </g>
    </g>
    <g id="xtick_12">
     <g id="line2d_17">
      <g>
       <use xlink:href="#mb1ee804aa6" x="196.846487" y="384.48" style="stroke: #000000; stroke-width: 0.6"/>
      </g>
     </g>
    </g>
    <g id="xtick_13">
     <g id="line2d_18">
      <g>
       <use xlink:href="#mb1ee804aa6" x="206.077088" y="384.48" style="stroke: #000000; stroke-width: 0.6"/>
      </g>
     </g>
    </g>
    <g id="xtick_14">
     <g id="line2d_19">
      <g>
       <use xlink:href="#mb1ee804aa6" x="213.881451" y="384.48" style="stroke: #000000; stroke-width: 0.6"/>
      </g>
     </g>
    </g>
    <g id="xtick_15">
     <g id="line2d_20">
      <g>
       <use xlink:href="#mb1ee804aa6" x="220.641897" y="384.48" style="stroke: #000000; stroke-width: 0.6"/>
      </g>
     </g>
    </g>
    <g id="xtick_16">
     <g id="line2d_21">
      <g>
       <use xlink:href="#mb1ee804aa6" x="226.605033" y="384.48" style="stroke: #000000; stroke-width: 0.6"/>
      </g>
     </g>
    </g>
    <g id="xtick_17">
     <g id="line2d_22">
      <g>
       <use xlink:href="#mb1ee804aa6" x="267.031994" y="384.48" style="stroke: #000000; stroke-width: 0.6"/>
      </g>
     </g>
    </g>
    <g id="xtick_18">
     <g id="line2d_23">
      <g>
       <use xlink:href="#mb1ee804aa6" x="287.559939" y="384.48" style="stroke: #000000; stroke-width: 0.6"/>
      </g>
     </g>
    </g>
    <g id="xtick_19">
     <g id="line2d_24">
      <g>
       <use xlink:href="#mb1ee804aa6" x="302.124747" y="384.48" style="stroke: #000000; stroke-width: 0.6"/>
      </g>
     </g>
    </g>
    <g id="xtick_20">
     <g id="line2d_25">
      <g>
       <use xlink:href="#mb1ee804aa6" x="313.42209" y="384.48" style="stroke: #000000; stroke-width: 0.6"/>
      </g>
     </g>
    </g>
    <g id="xtick_21">
     <g id="line2d_26">
      <g>
       <use xlink:href="#mb1ee804aa6" x="322.652692" y="384.48" style="stroke: #000000; stroke-width: 0.6"/>
      </g>
     </g>
    </g>
    <g id="xtick_22">
     <g id="line2d_27">
      <g>
       <use xlink:href="#mb1ee804aa6" x="330.457054" y="384.48" style="stroke: #000000; stroke-width: 0.6"/>
      </g>
     </g>
    </g>
    <g id="xtick_23">
     <g id="line2d_28">
      <g>
       <use xlink:href="#mb1ee804aa6" x="337.217501" y="384.48" style="stroke: #000000; stroke-width: 0.6"/>
      </g>
     </g>
    </g>
    <g id="xtick_24">
     <g id="line2d_29">
      <g>
       <use xlink:href="#mb1ee804aa6" x="343.180637" y="384.48" style="stroke: #000000; stroke-width: 0.6"/>
      </g>
     </g>
    </g>
    <g id="xtick_25">
     <g id="line2d_30">
      <g>
       <use xlink:href="#mb1ee804aa6" x="383.607597" y="384.48" style="stroke: #000000; stroke-width: 0.6"/>
      </g>
     </g>
    </g>
    <g id="xtick_26">
     <g id="line2d_31">
      <g>
       <use xlink:href="#mb1ee804aa6" x="404.135542" y="384.48" style="stroke: #000000; stroke-width: 0.6"/>
      </g>
     </g>
    </g>
    <g id="xtick_27">
     <g id="line2d_32">
      <g>
       <use xlink:href="#mb1ee804aa6" x="418.700351" y="384.48" style="stroke: #000000; stroke-width: 0.6"/>
      </g>
     </g>
    </g>
    <g id="xtick_28">
     <g id="line2d_33">
      <g>
       <use xlink:href="#mb1ee804aa6" x="429.997694" y="384.48" style="stroke: #000000; stroke-width: 0.6"/>
      </g>
     </g>
    </g>
    <g id="xtick_29">
     <g id="line2d_34">
      <g>
       <use xlink:href="#mb1ee804aa6" x="439.228296" y="384.48" style="stroke: #000000; stroke-width: 0.6"/>
      </g>
     </g>
    </g>
    <g id="xtick_30">
     <g id="line2d_35">
      <g>
       <use xlink:href="#mb1ee804aa6" x="447.032658" y="384.48" style="stroke: #000000; stroke-width: 0.6"/>
      </g>
     </g>
    </g>
    <g id="xtick_31">
     <g id="line2d_36">
      <g>
       <use xlink:href="#mb1ee804aa6" x="453.793104" y="384.48" style="stroke: #000000; stroke-width: 0.6"/>
      </g>
     </g>
    </g>
    <g id="xtick_32">
     <g id="line2d_37">
      <g>
       <use xlink:href="#mb1ee804aa6" x="459.756241" y="384.48" style="stroke: #000000; stroke-width: 0.6"/>
      </g>
     </g>
    </g>
    <g id="xtick_33">
     <g id="line2d_38">
      <g>
       <use xlink:href="#mb1ee804aa6" x="500.183201" y="384.48" style="stroke: #000000; stroke-width: 0.6"/>
      </g>
     </g>
    </g>
    <g id="xtick_34">
     <g id="line2d_39">
      <g>
       <use xlink:href="#mb1ee804aa6" x="520.711146" y="384.48" style="stroke: #000000; stroke-width: 0.6"/>
      </g>
     </g>
    </g>
    <g id="xtick_35">
     <g id="line2d_40">
      <g>
       <use xlink:href="#mb1ee804aa6" x="535.275955" y="384.48" style="stroke: #000000; stroke-width: 0.6"/>
      </g>
     </g>
    </g>
    <g id="xtick_36">
     <g id="line2d_41">
      <g>
       <use xlink:href="#mb1ee804aa6" x="546.573298" y="384.48" style="stroke: #000000; stroke-width: 0.6"/>
      </g>
     </g>
    </g>
    <g id="xtick_37">
     <g id="line2d_42">
      <g>
       <use xlink:href="#mb1ee804aa6" x="555.8039" y="384.48" style="stroke: #000000; stroke-width: 0.6"/>
      </g>
     </g>
    </g>
    <g id="xtick_38">
     <g id="line2d_43">
      <g>
       <use xlink:href="#mb1ee804aa6" x="563.608262" y="384.48" style="stroke: #000000; stroke-width: 0.6"/>
      </g>
     </g>
    </g>
    <g id="xtick_39">
     <g id="line2d_44">
      <g>
       <use xlink:href="#mb1ee804aa6" x="570.368708" y="384.48" style="stroke: #000000; stroke-width: 0.6"/>
      </g>
     </g>
    </g>
    <g id="xtick_40">
     <g id="line2d_45">
      <g>
       <use xlink:href="#mb1ee804aa6" x="576.331844" y="384.48" style="stroke: #000000; stroke-width: 0.6"/>
      </g>
     </g>
    </g>
    <g id="xtick_41">
     <g id="line2d_46">
      <g>
       <use xlink:href="#mb1ee804aa6" x="616.758805" y="384.48" style="stroke: #000000; stroke-width: 0.6"/>
      </g>
     </g>
    </g>
    <g id="xtick_42">
     <g id="line2d_47">
      <g>
       <use xlink:href="#mb1ee804aa6" x="637.28675" y="384.48" style="stroke: #000000; stroke-width: 0.6"/>
      </g>
     </g>
    </g>
    <g id="text_6">
     <!-- Rank (log scale) -->
     <g transform="translate(328.924219 412.756563) scale(0.1 -0.1)">
      <defs>
       <path id="DejaVuSans-52" d="M 2841 2188 
Q 3044 2119 3236 1894 
Q 3428 1669 3622 1275 
L 4263 0 
L 3584 0 
L 2988 1197 
Q 2756 1666 2539 1819 
Q 2322 1972 1947 1972 
L 1259 1972 
L 1259 0 
L 628 0 
L 628 4666 
L 2053 4666 
Q 2853 4666 3247 4331 
Q 3641 3997 3641 3322 
Q 3641 2881 3436 2590 
Q 3231 2300 2841 2188 
z
M 1259 4147 
L 1259 2491 
L 2053 2491 
Q 2509 2491 2742 2702 
Q 2975 2913 2975 3322 
Q 2975 3731 2742 3939 
Q 2509 4147 2053 4147 
L 1259 4147 
z
" transform="scale(0.015625)"/>
       <path id="DejaVuSans-61" d="M 2194 1759 
Q 1497 1759 1228 1600 
Q 959 1441 959 1056 
Q 959 750 1161 570 
Q 1363 391 1709 391 
Q 2188 391 2477 730 
Q 2766 1069 2766 1631 
L 2766 1759 
L 2194 1759 
z
M 3341 1997 
L 3341 0 
L 2766 0 
L 2766 531 
Q 2569 213 2275 61 
Q 1981 -91 1556 -91 
Q 1019 -91 701 211 
Q 384 513 384 1019 
Q 384 1609 779 1909 
Q 1175 2209 1959 2209 
L 2766 2209 
L 2766 2266 
Q 2766 2663 2505 2880 
Q 2244 3097 1772 3097 
Q 1472 3097 1187 3025 
Q 903 2953 641 2809 
L 641 3341 
Q 956 3463 1253 3523 
Q 1550 3584 1831 3584 
Q 2591 3584 2966 3190 
Q 3341 2797 3341 1997 
z
" transform="scale(0.015625)"/>
       <path id="DejaVuSans-6e" d="M 3513 2113 
L 3513 0 
L 2938 0 
L 2938 2094 
Q 2938 2591 2744 2837 
Q 2550 3084 2163 3084 
Q 1697 3084 1428 2787 
Q 1159 2491 1159 1978 
L 1159 0 
L 581 0 
L 581 3500 
L 1159 3500 
L 1159 2956 
Q 1366 3272 1645 3428 
Q 1925 3584 2291 3584 
Q 2894 3584 3203 3211 
Q 3513 2838 3513 2113 
z
" transform="scale(0.015625)"/>
       <path id="DejaVuSans-6b" d="M 581 4863 
L 1159 4863 
L 1159 1991 
L 2875 3500 
L 3609 3500 
L 1753 1863 
L 3688 0 
L 2938 0 
L 1159 1709 
L 1159 0 
L 581 0 
L 581 4863 
z
" transform="scale(0.015625)"/>
       <path id="DejaVuSans-20" transform="scale(0.015625)"/>
       <path id="DejaVuSans-28" d="M 1984 4856 
Q 1566 4138 1362 3434 
Q 1159 2731 1159 2009 
Q 1159 1288 1364 580 
Q 1569 -128 1984 -844 
L 1484 -844 
Q 1016 -109 783 600 
Q 550 1309 550 2009 
Q 550 2706 781 3412 
Q 1013 4119 1484 4856 
L 1984 4856 
z
" transform="scale(0.015625)"/>
       <path id="DejaVuSans-6c" d="M 603 4863 
L 1178 4863 
L 1178 0 
L 603 0 
L 603 4863 
z
" transform="scale(0.015625)"/>
       <path id="DejaVuSans-6f" d="M 1959 3097 
Q 1497 3097 1228 2736 
Q 959 2375 959 1747 
Q 959 1119 1226 758 
Q 1494 397 1959 397 
Q 2419 397 2687 759 
Q 2956 1122 2956 1747 
Q 2956 2369 2687 2733 
Q 2419 3097 1959 3097 
z
M 1959 3584 
Q 2709 3584 3137 3096 
Q 3566 2609 3566 1747 
Q 3566 888 3137 398 
Q 2709 -91 1959 -91 
Q 1206 -91 779 398 
Q 353 888 353 1747 
Q 353 2609 779 3096 
Q 1206 3584 1959 3584 
z
" transform="scale(0.015625)"/>
       <path id="DejaVuSans-67" d="M 2906 1791 
Q 2906 2416 2648 2759 
Q 2391 3103 1925 3103 
Q 1463 3103 1205 2759 
Q 947 2416 947 1791 
Q 947 1169 1205 825 
Q 1463 481 1925 481 
Q 2391 481 2648 825 
Q 2906 1169 2906 1791 
z
M 3481 434 
Q 3481 -459 3084 -895 
Q 2688 -1331 1869 -1331 
Q 1566 -1331 1297 -1286 
Q 1028 -1241 775 -1147 
L 775 -588 
Q 1028 -725 1275 -790 
Q 1522 -856 1778 -856 
Q 2344 -856 2625 -561 
Q 2906 -266 2906 331 
L 2906 616 
Q 2728 306 2450 153 
Q 2172 0 1784 0 
Q 1141 0 747 490 
Q 353 981 353 1791 
Q 353 2603 747 3093 
Q 1141 3584 1784 3584 
Q 2172 3584 2450 3431 
Q 2728 3278 2906 2969 
L 2906 3500 
L 3481 3500 
L 3481 434 
z
" transform="scale(0.015625)"/>
       <path id="DejaVuSans-73" d="M 2834 3397 
L 2834 2853 
Q 2591 2978 2328 3040 
Q 2066 3103 1784 3103 
Q 1356 3103 1142 2972 
Q 928 2841 928 2578 
Q 928 2378 1081 2264 
Q 1234 2150 1697 2047 
L 1894 2003 
Q 2506 1872 2764 1633 
Q 3022 1394 3022 966 
Q 3022 478 2636 193 
Q 2250 -91 1575 -91 
Q 1294 -91 989 -36 
Q 684 19 347 128 
L 347 722 
Q 666 556 975 473 
Q 1284 391 1588 391 
Q 1994 391 2212 530 
Q 2431 669 2431 922 
Q 2431 1156 2273 1281 
Q 2116 1406 1581 1522 
L 1381 1569 
Q 847 1681 609 1914 
Q 372 2147 372 2553 
Q 372 3047 722 3315 
Q 1072 3584 1716 3584 
Q 2034 3584 2315 3537 
Q 2597 3491 2834 3397 
z
" transform="scale(0.015625)"/>
       <path id="DejaVuSans-63" d="M 3122 3366 
L 3122 2828 
Q 2878 2963 2633 3030 
Q 2388 3097 2138 3097 
Q 1578 3097 1268 2742 
Q 959 2388 959 1747 
Q 959 1106 1268 751 
Q 1578 397 2138 397 
Q 2388 397 2633 464 
Q 2878 531 3122 666 
L 3122 134 
Q 2881 22 2623 -34 
Q 2366 -91 2075 -91 
Q 1284 -91 818 406 
Q 353 903 353 1747 
Q 353 2603 823 3093 
Q 1294 3584 2113 3584 
Q 2378 3584 2631 3529 
Q 2884 3475 3122 3366 
z
" transform="scale(0.015625)"/>
       <path id="DejaVuSans-65" d="M 3597 1894 
L 3597 1613 
L 953 1613 
Q 991 1019 1311 708 
Q 1631 397 2203 397 
Q 2534 397 2845 478 
Q 3156 559 3463 722 
L 3463 178 
Q 3153 47 2828 -22 
Q 2503 -91 2169 -91 
Q 1331 -91 842 396 
Q 353 884 353 1716 
Q 353 2575 817 3079 
Q 1281 3584 2069 3584 
Q 2775 3584 3186 3129 
Q 3597 2675 3597 1894 
z
M 3022 2063 
Q 3016 2534 2758 2815 
Q 2500 3097 2075 3097 
Q 1594 3097 1305 2825 
Q 1016 2553 972 2059 
L 3022 2063 
z
" transform="scale(0.015625)"/>
       <path id="DejaVuSans-29" d="M 513 4856 
L 1013 4856 
Q 1481 4119 1714 3412 
Q 1947 2706 1947 2009 
Q 1947 1309 1714 600 
Q 1481 -109 1013 -844 
L 513 -844 
Q 928 -128 1133 580 
Q 1338 1288 1338 2009 
Q 1338 2731 1133 3434 
Q 928 4138 513 4856 
z
" transform="scale(0.015625)"/>
      </defs>
      <use xlink:href="#DejaVuSans-52"/>
      <use xlink:href="#DejaVuSans-61" x="67.232422"/>
      <use xlink:href="#DejaVuSans-6e" x="128.511719"/>
      <use xlink:href="#DejaVuSans-6b" x="191.890625"/>
      <use xlink:href="#DejaVuSans-20" x="249.800781"/>
      <use xlink:href="#DejaVuSans-28" x="281.587891"/>
      <use xlink:href="#DejaVuSans-6c" x="320.601562"/>
      <use xlink:href="#DejaVuSans-6f" x="348.384766"/>
      <use xlink:href="#DejaVuSans-67" x="409.566406"/>
      <use xlink:href="#DejaVuSans-20" x="473.042969"/>
      <use xlink:href="#DejaVuSans-73" x="504.830078"/>
      <use xlink:href="#DejaVuSans-63" x="556.929688"/>
      <use xlink:href="#DejaVuSans-61" x="611.910156"/>
      <use xlink:href="#DejaVuSans-6c" x="673.189453"/>
      <use xlink:href="#DejaVuSans-65" x="700.972656"/>
      <use xlink:href="#DejaVuSans-29" x="762.496094"/>
     </g>
    </g>
   </g>
   <g id="matplotlib.axis_2">
    <g id="ytick_1">
     <g id="line2d_48">
      <path d="M 90 369.36 
L 648 369.36 
" clip-path="url(#p919c1dbbbe)" style="fill: none; stroke: #b0b0b0; stroke-width: 0.8; stroke-linecap: square"/>
     </g>
     <g id="line2d_49">
      <defs>
       <path id="m734baf34c2" d="M 0 0 
L -3.5 0 
" style="stroke: #000000; stroke-width: 0.8"/>
      </defs>
      <g>
       <use xlink:href="#m734baf34c2" x="90" y="369.36" style="stroke: #000000; stroke-width: 0.8"/>
      </g>
     </g>
     <g id="text_7">
      <!-- $\mathdefault{10^{0}}$ -->
      <g transform="translate(65.4 373.159219) scale(0.1 -0.1)">
       <use xlink:href="#DejaVuSans-31" transform="translate(0 0.765625)"/>
       <use xlink:href="#DejaVuSans-30" transform="translate(63.623047 0.765625)"/>
       <use xlink:href="#DejaVuSans-30" transform="translate(128.203125 39.046875) scale(0.7)"/>
      </g>
     </g>
    </g>
    <g id="ytick_2">
     <g id="line2d_50">
      <path d="M 90 282.141742 
L 648 282.141742 
" clip-path="url(#p919c1dbbbe)" style="fill: none; stroke: #b0b0b0; stroke-width: 0.8; stroke-linecap: square"/>
     </g>
     <g id="line2d_51">
      <g>
       <use xlink:href="#m734baf34c2" x="90" y="282.141742" style="stroke: #000000; stroke-width: 0.8"/>
      </g>
     </g>
     <g id="text_8">
      <!-- $\mathdefault{10^{1}}$ -->
      <g transform="translate(65.4 285.940961) scale(0.1 -0.1)">
       <use xlink:href="#DejaVuSans-31" transform="translate(0 0.684375)"/>
       <use xlink:href="#DejaVuSans-30" transform="translate(63.623047 0.684375)"/>
       <use xlink:href="#DejaVuSans-31" transform="translate(128.203125 38.965625) scale(0.7)"/>
      </g>
     </g>
    </g>
    <g id="ytick_3">
     <g id="line2d_52">
      <path d="M 90 194.923485 
L 648 194.923485 
" clip-path="url(#p919c1dbbbe)" style="fill: none; stroke: #b0b0b0; stroke-width: 0.8; stroke-linecap: square"/>
     </g>
     <g id="line2d_53">
      <g>
       <use xlink:href="#m734baf34c2" x="90" y="194.923485" style="stroke: #000000; stroke-width: 0.8"/>
      </g>
     </g>
     <g id="text_9">
      <!-- $\mathdefault{10^{2}}$ -->
      <g transform="translate(65.4 198.722704) scale(0.1 -0.1)">
       <use xlink:href="#DejaVuSans-31" transform="translate(0 0.765625)"/>
       <use xlink:href="#DejaVuSans-30" transform="translate(63.623047 0.765625)"/>
       <use xlink:href="#DejaVuSans-32" transform="translate(128.203125 39.046875) scale(0.7)"/>
      </g>
     </g>
    </g>
    <g id="ytick_4">
     <g id="line2d_54">
      <path d="M 90 107.705227 
L 648 107.705227 
" clip-path="url(#p919c1dbbbe)" style="fill: none; stroke: #b0b0b0; stroke-width: 0.8; stroke-linecap: square"/>
     </g>
     <g id="line2d_55">
      <g>
       <use xlink:href="#m734baf34c2" x="90" y="107.705227" style="stroke: #000000; stroke-width: 0.8"/>
      </g>
     </g>
     <g id="text_10">
      <!-- $\mathdefault{10^{3}}$ -->
      <g transform="translate(65.4 111.504446) scale(0.1 -0.1)">
       <use xlink:href="#DejaVuSans-31" transform="translate(0 0.765625)"/>
       <use xlink:href="#DejaVuSans-30" transform="translate(63.623047 0.765625)"/>
       <use xlink:href="#DejaVuSans-33" transform="translate(128.203125 39.046875) scale(0.7)"/>
      </g>
     </g>
    </g>
    <g id="ytick_5">
     <g id="line2d_56">
      <defs>
       <path id="m92607a377f" d="M 0 0 
L -2 0 
" style="stroke: #000000; stroke-width: 0.6"/>
      </defs>
      <g>
       <use xlink:href="#m92607a377f" x="90" y="382.870279" style="stroke: #000000; stroke-width: 0.6"/>
      </g>
     </g>
    </g>
    <g id="ytick_6">
     <g id="line2d_57">
      <g>
       <use xlink:href="#m92607a377f" x="90" y="377.812322" style="stroke: #000000; stroke-width: 0.6"/>
      </g>
     </g>
    </g>
    <g id="ytick_7">
     <g id="line2d_58">
      <g>
       <use xlink:href="#m92607a377f" x="90" y="373.350889" style="stroke: #000000; stroke-width: 0.6"/>
      </g>
     </g>
    </g>
    <g id="ytick_8">
     <g id="line2d_59">
      <g>
       <use xlink:href="#m92607a377f" x="90" y="343.104688" style="stroke: #000000; stroke-width: 0.6"/>
      </g>
     </g>
    </g>
    <g id="ytick_9">
     <g id="line2d_60">
      <g>
       <use xlink:href="#m92607a377f" x="90" y="327.746315" style="stroke: #000000; stroke-width: 0.6"/>
      </g>
     </g>
    </g>
    <g id="ytick_10">
     <g id="line2d_61">
      <g>
       <use xlink:href="#m92607a377f" x="90" y="316.849377" style="stroke: #000000; stroke-width: 0.6"/>
      </g>
     </g>
    </g>
    <g id="ytick_11">
     <g id="line2d_62">
      <g>
       <use xlink:href="#m92607a377f" x="90" y="308.397054" style="stroke: #000000; stroke-width: 0.6"/>
      </g>
     </g>
    </g>
    <g id="ytick_12">
     <g id="line2d_63">
      <g>
       <use xlink:href="#m92607a377f" x="90" y="301.491004" style="stroke: #000000; stroke-width: 0.6"/>
      </g>
     </g>
    </g>
    <g id="ytick_13">
     <g id="line2d_64">
      <g>
       <use xlink:href="#m92607a377f" x="90" y="295.652021" style="stroke: #000000; stroke-width: 0.6"/>
      </g>
     </g>
    </g>
    <g id="ytick_14">
     <g id="line2d_65">
      <g>
       <use xlink:href="#m92607a377f" x="90" y="290.594065" style="stroke: #000000; stroke-width: 0.6"/>
      </g>
     </g>
    </g>
    <g id="ytick_15">
     <g id="line2d_66">
      <g>
       <use xlink:href="#m92607a377f" x="90" y="286.132631" style="stroke: #000000; stroke-width: 0.6"/>
      </g>
     </g>
    </g>
    <g id="ytick_16">
     <g id="line2d_67">
      <g>
       <use xlink:href="#m92607a377f" x="90" y="255.886431" style="stroke: #000000; stroke-width: 0.6"/>
      </g>
     </g>
    </g>
    <g id="ytick_17">
     <g id="line2d_68">
      <g>
       <use xlink:href="#m92607a377f" x="90" y="240.528058" style="stroke: #000000; stroke-width: 0.6"/>
      </g>
     </g>
    </g>
    <g id="ytick_18">
     <g id="line2d_69">
      <g>
       <use xlink:href="#m92607a377f" x="90" y="229.631119" style="stroke: #000000; stroke-width: 0.6"/>
      </g>
     </g>
    </g>
    <g id="ytick_19">
     <g id="line2d_70">
      <g>
       <use xlink:href="#m92607a377f" x="90" y="221.178796" style="stroke: #000000; stroke-width: 0.6"/>
      </g>
     </g>
    </g>
    <g id="ytick_20">
     <g id="line2d_71">
      <g>
       <use xlink:href="#m92607a377f" x="90" y="214.272746" style="stroke: #000000; stroke-width: 0.6"/>
      </g>
     </g>
    </g>
    <g id="ytick_21">
     <g id="line2d_72">
      <g>
       <use xlink:href="#m92607a377f" x="90" y="208.433764" style="stroke: #000000; stroke-width: 0.6"/>
      </g>
     </g>
    </g>
    <g id="ytick_22">
     <g id="line2d_73">
      <g>
       <use xlink:href="#m92607a377f" x="90" y="203.375807" style="stroke: #000000; stroke-width: 0.6"/>
      </g>
     </g>
    </g>
    <g id="ytick_23">
     <g id="line2d_74">
      <g>
       <use xlink:href="#m92607a377f" x="90" y="198.914373" style="stroke: #000000; stroke-width: 0.6"/>
      </g>
     </g>
    </g>
    <g id="ytick_24">
     <g id="line2d_75">
      <g>
       <use xlink:href="#m92607a377f" x="90" y="168.668173" style="stroke: #000000; stroke-width: 0.6"/>
      </g>
     </g>
    </g>
    <g id="ytick_25">
     <g id="line2d_76">
      <g>
       <use xlink:href="#m92607a377f" x="90" y="153.3098" style="stroke: #000000; stroke-width: 0.6"/>
      </g>
     </g>
    </g>
    <g id="ytick_26">
     <g id="line2d_77">
      <g>
       <use xlink:href="#m92607a377f" x="90" y="142.412861" style="stroke: #000000; stroke-width: 0.6"/>
      </g>
     </g>
    </g>
    <g id="ytick_27">
     <g id="line2d_78">
      <g>
       <use xlink:href="#m92607a377f" x="90" y="133.960539" style="stroke: #000000; stroke-width: 0.6"/>
      </g>
     </g>
    </g>
    <g id="ytick_28">
     <g id="line2d_79">
      <g>
       <use xlink:href="#m92607a377f" x="90" y="127.054489" style="stroke: #000000; stroke-width: 0.6"/>
      </g>
     </g>
    </g>
    <g id="ytick_29">
     <g id="line2d_80">
      <g>
       <use xlink:href="#m92607a377f" x="90" y="121.215506" style="stroke: #000000; stroke-width: 0.6"/>
      </g>
     </g>
    </g>
    <g id="ytick_30">
     <g id="line2d_81">
      <g>
       <use xlink:href="#m92607a377f" x="90" y="116.15755" style="stroke: #000000; stroke-width: 0.6"/>
      </g>
     </g>
    </g>
    <g id="ytick_31">
     <g id="line2d_82">
      <g>
       <use xlink:href="#m92607a377f" x="90" y="111.696116" style="stroke: #000000; stroke-width: 0.6"/>
      </g>
     </g>
    </g>
    <g id="ytick_32">
     <g id="line2d_83">
      <g>
       <use xlink:href="#m92607a377f" x="90" y="81.449915" style="stroke: #000000; stroke-width: 0.6"/>
      </g>
     </g>
    </g>
    <g id="ytick_33">
     <g id="line2d_84">
      <g>
       <use xlink:href="#m92607a377f" x="90" y="66.091543" style="stroke: #000000; stroke-width: 0.6"/>
      </g>
     </g>
    </g>
    <g id="ytick_34">
     <g id="line2d_85">
      <g>
       <use xlink:href="#m92607a377f" x="90" y="55.194604" style="stroke: #000000; stroke-width: 0.6"/>
      </g>
     </g>
    </g>
    <g id="text_11">
     <!-- Frequency (log scale) -->
     <g transform="translate(59.320312 271.575625) rotate(-90) scale(0.1 -0.1)">
      <defs>
       <path id="DejaVuSans-46" d="M 628 4666 
L 3309 4666 
L 3309 4134 
L 1259 4134 
L 1259 2759 
L 3109 2759 
L 3109 2228 
L 1259 2228 
L 1259 0 
L 628 0 
L 628 4666 
z
" transform="scale(0.015625)"/>
       <path id="DejaVuSans-72" d="M 2631 2963 
Q 2534 3019 2420 3045 
Q 2306 3072 2169 3072 
Q 1681 3072 1420 2755 
Q 1159 2438 1159 1844 
L 1159 0 
L 581 0 
L 581 3500 
L 1159 3500 
L 1159 2956 
Q 1341 3275 1631 3429 
Q 1922 3584 2338 3584 
Q 2397 3584 2469 3576 
Q 2541 3569 2628 3553 
L 2631 2963 
z
" transform="scale(0.015625)"/>
       <path id="DejaVuSans-71" d="M 947 1747 
Q 947 1113 1208 752 
Q 1469 391 1925 391 
Q 2381 391 2643 752 
Q 2906 1113 2906 1747 
Q 2906 2381 2643 2742 
Q 2381 3103 1925 3103 
Q 1469 3103 1208 2742 
Q 947 2381 947 1747 
z
M 2906 525 
Q 2725 213 2448 61 
Q 2172 -91 1784 -91 
Q 1150 -91 751 415 
Q 353 922 353 1747 
Q 353 2572 751 3078 
Q 1150 3584 1784 3584 
Q 2172 3584 2448 3432 
Q 2725 3281 2906 2969 
L 2906 3500 
L 3481 3500 
L 3481 -1331 
L 2906 -1331 
L 2906 525 
z
" transform="scale(0.015625)"/>
       <path id="DejaVuSans-75" d="M 544 1381 
L 544 3500 
L 1119 3500 
L 1119 1403 
Q 1119 906 1312 657 
Q 1506 409 1894 409 
Q 2359 409 2629 706 
Q 2900 1003 2900 1516 
L 2900 3500 
L 3475 3500 
L 3475 0 
L 2900 0 
L 2900 538 
Q 2691 219 2414 64 
Q 2138 -91 1772 -91 
Q 1169 -91 856 284 
Q 544 659 544 1381 
z
M 1991 3584 
L 1991 3584 
z
" transform="scale(0.015625)"/>
       <path id="DejaVuSans-79" d="M 2059 -325 
Q 1816 -950 1584 -1140 
Q 1353 -1331 966 -1331 
L 506 -1331 
L 506 -850 
L 844 -850 
Q 1081 -850 1212 -737 
Q 1344 -625 1503 -206 
L 1606 56 
L 191 3500 
L 800 3500 
L 1894 763 
L 2988 3500 
L 3597 3500 
L 2059 -325 
z
" transform="scale(0.015625)"/>
      </defs>
      <use xlink:href="#DejaVuSans-46"/>
      <use xlink:href="#DejaVuSans-72" x="50.269531"/>
      <use xlink:href="#DejaVuSans-65" x="89.132812"/>
      <use xlink:href="#DejaVuSans-71" x="150.65625"/>
      <use xlink:href="#DejaVuSans-75" x="214.132812"/>
      <use xlink:href="#DejaVuSans-65" x="277.511719"/>
      <use xlink:href="#DejaVuSans-6e" x="339.035156"/>
      <use xlink:href="#DejaVuSans-63" x="402.414062"/>
      <use xlink:href="#DejaVuSans-79" x="457.394531"/>
      <use xlink:href="#DejaVuSans-20" x="516.574219"/>
      <use xlink:href="#DejaVuSans-28" x="548.361328"/>
      <use xlink:href="#DejaVuSans-6c" x="587.375"/>
      <use xlink:href="#DejaVuSans-6f" x="615.158203"/>
      <use xlink:href="#DejaVuSans-67" x="676.339844"/>
      <use xlink:href="#DejaVuSans-20" x="739.816406"/>
      <use xlink:href="#DejaVuSans-73" x="771.603516"/>
      <use xlink:href="#DejaVuSans-63" x="823.703125"/>
      <use xlink:href="#DejaVuSans-61" x="878.683594"/>
      <use xlink:href="#DejaVuSans-6c" x="939.962891"/>
      <use xlink:href="#DejaVuSans-65" x="967.746094"/>
      <use xlink:href="#DejaVuSans-29" x="1029.269531"/>
     </g>
    </g>
   </g>
   <g id="line2d_86">
    <path d="M 115.363636 94.289763 
L 150.45639 109.094 
L 170.984335 128.143207 
L 185.549143 128.273374 
L 196.846487 132.620888 
L 206.077088 147.906207 
L 213.881451 150.983739 
L 220.641897 159.914029 
L 226.605033 161.447777 
L 231.93924 161.762123 
L 236.764617 164.715182 
L 241.169842 170.810968 
L 245.222255 172.659062 
L 248.974204 174.161518 
L 252.467185 175.726041 
L 255.73465 176.416852 
L 258.803962 179.063404 
L 261.697787 184.12136 
L 264.435109 186.169341 
L 267.031994 187.391331 
L 269.502149 188.976433 
L 271.857371 191.659211 
L 274.107881 192.360683 
L 278.329337 193.075391 
L 280.315009 194.546582 
L 282.225731 194.546582 
L 284.066958 196.077231 
L 285.843566 198.495823 
L 287.559939 200.19851 
L 289.220026 200.19851 
L 290.827404 200.636416 
L 292.385316 201.981353 
L 293.896716 202.905262 
L 296.79054 202.905262 
L 298.177699 204.823566 
L 299.527863 204.823566 
L 300.842954 205.318716 
L 302.124747 205.318716 
L 303.374888 205.820424 
L 304.594902 207.366696 
L 305.786208 207.896472 
L 308.087883 207.896472 
L 309.200635 208.978786 
L 310.289454 208.978786 
L 312.399265 210.092937 
L 313.42209 210.092937 
L 314.424661 212.424652 
L 315.407762 215.556883 
L 316.372137 215.556883 
L 317.318485 216.215654 
L 318.247468 218.263635 
L 320.055808 218.263635 
L 320.936319 218.971663 
L 322.652692 218.971663 
L 324.31278 221.944043 
L 325.122847 223.522538 
L 327.478069 226.020921 
L 328.239409 226.891727 
L 328.989469 228.695802 
L 329.728579 231.574027 
L 331.175196 231.574027 
L 332.581624 233.622008 
L 333.950035 233.622008 
L 334.620617 235.787077 
L 337.217501 235.787077 
L 339.081324 239.286032 
L 341.464264 239.286032 
L 342.614953 241.812195 
L 343.74007 241.812195 
L 345.382207 245.94849 
L 348.006014 245.94849 
L 348.514844 247.434108 
L 349.018611 247.434108 
L 349.517414 248.98038 
L 350.984999 248.98038 
L 351.46489 250.592471 
L 353.798398 250.592471 
L 354.252465 252.276233 
L 354.702496 252.276233 
L 355.148561 254.038337 
L 359.812187 254.038337 
L 360.215601 255.886431 
L 361.012911 255.886431 
L 361.406906 257.829339 
L 363.332163 257.829339 
L 363.708582 259.877319 
L 366.623236 259.877319 
L 366.976047 262.042389 
L 370.045359 262.042389 
L 370.375185 264.338753 
L 372.939183 264.338753 
L 373.250742 266.78337 
L 374.78041 266.78337 
L 375.080874 269.39671 
L 378.27339 269.39671 
L 378.553879 272.203802 
L 381.540856 272.203802 
L 381.80386 275.235692 
L 385.836091 275.235692 
L 386.077753 278.531545 
L 391.556405 278.531545 
L 391.772304 282.141742 
L 395.907511 282.141742 
L 396.105664 286.132631 
L 402.244288 286.132631 
L 402.41917 290.594065 
L 407.403008 290.594065 
L 407.560974 295.652021 
L 416.236524 295.652021 
L 416.369232 301.491004 
L 426.323575 301.491004 
L 426.540863 308.397054 
L 437.686203 308.397054 
L 437.859884 316.849377 
L 451.395675 316.849377 
L 451.528209 327.746315 
L 471.590758 327.746315 
L 471.724165 343.104688 
L 505.603403 343.104688 
L 505.716996 369.36 
L 578.36077 369.36 
L 578.36077 369.36 
" clip-path="url(#p919c1dbbbe)" style="fill: none; stroke: #1f77b4; stroke-width: 1.5; stroke-linecap: square"/>
   </g>
   <g id="line2d_87">
    <path d="M 115.363636 66.96 
L 150.45639 85.001447 
L 170.984335 85.147334 
L 185.549143 87.919105 
L 196.846487 89.501903 
L 206.077088 108.586606 
L 213.881451 109.568475 
L 220.641897 109.568475 
L 226.605033 124.080918 
L 231.93924 126.865568 
L 236.764617 130.144293 
L 241.169842 134.036372 
L 245.222255 137.449719 
L 248.974204 138.120151 
L 252.467185 140.474688 
L 255.73465 141.018407 
L 258.803962 148.457576 
L 261.697787 149.24323 
L 267.031994 149.699602 
L 269.502149 155.385849 
L 271.857371 157.021142 
L 274.107881 161.291577 
L 276.262595 162.079099 
L 278.329337 167.182555 
L 280.315009 167.548533 
L 282.225731 168.29127 
L 284.066958 170.214445 
L 285.843566 171.417035 
L 287.559939 171.417035 
L 289.220026 174.161518 
L 290.827404 174.824131 
L 292.385316 176.64995 
L 293.896716 182.178452 
L 295.364301 182.178452 
L 296.79054 183.276454 
L 298.177699 183.837626 
L 299.527863 183.837626 
L 300.842954 184.695287 
L 302.124747 185.278043 
L 303.374888 187.391331 
L 304.594902 191.313287 
L 305.786208 192.360683 
L 306.950124 192.360683 
L 308.087883 192.716351 
L 309.200635 192.716351 
L 310.289454 193.803844 
L 311.355349 195.304175 
L 312.399265 195.688731 
L 313.42209 196.866393 
L 314.424661 197.267227 
L 315.407762 197.267227 
L 317.318485 198.081847 
L 318.247468 200.19851 
L 319.159711 200.19851 
L 320.055808 201.079443 
L 320.936319 201.079443 
L 324.31278 202.905262 
L 325.920157 202.905262 
L 326.705106 204.334805 
L 327.478069 204.334805 
L 328.239409 205.318716 
L 329.728579 206.328866 
L 331.175196 206.328866 
L 331.883294 206.844227 
L 332.581624 206.844227 
L 333.950035 207.896472 
L 334.620617 208.978786 
L 335.282432 208.978786 
L 335.935707 209.531766 
L 336.58066 209.531766 
L 337.217501 210.662548 
L 337.84643 210.662548 
L 339.081324 211.82813 
L 339.687656 213.03072 
L 340.286813 213.03072 
L 340.878961 213.646643 
L 341.464264 213.646643 
L 342.042878 214.272746 
L 342.614953 215.556883 
L 344.840725 215.556883 
L 345.382207 216.886086 
L 345.91796 216.886086 
L 346.448102 217.568599 
L 348.006014 217.568599 
L 348.514844 218.263635 
L 350.011351 218.263635 
L 350.500516 218.971663 
L 350.984999 218.971663 
L 351.46489 219.693178 
L 351.940276 219.693178 
L 353.340221 221.944043 
L 353.798398 221.944043 
L 354.252465 222.725069 
L 354.702496 222.725069 
L 355.148561 223.522538 
L 355.590731 223.522538 
L 356.029073 224.337159 
L 357.321777 224.337159 
L 358.582293 226.891727 
L 359.405533 226.891727 
L 359.812187 227.783025 
L 361.406906 227.783025 
L 361.797859 228.695802 
L 362.952924 228.695802 
L 363.332163 229.631119 
L 364.082223 229.631119 
L 364.821333 231.574027 
L 365.549808 231.574027 
L 365.910152 232.584178 
L 367.674377 232.584178 
L 368.019963 233.622008 
L 369.37919 233.622008 
L 369.71337 234.689076 
L 370.375185 234.689076 
L 370.702877 235.787077 
L 371.351964 235.787077 
L 371.673414 236.91786 
L 372.625695 236.91786 
L 372.939183 238.083441 
L 374.174077 238.083441 
L 374.478151 239.286032 
L 375.379566 239.286032 
L 375.676506 240.528058 
L 378.832823 240.528058 
L 379.110238 241.812195 
L 380.474961 241.812195 
L 380.743546 243.141398 
L 381.010713 243.141398 
L 381.276478 244.518946 
L 382.065504 244.518946 
L 382.325804 245.94849 
L 384.610168 245.94849 
L 384.857739 247.434108 
L 385.593269 247.434108 
L 385.836091 248.98038 
L 387.970614 248.98038 
L 388.202322 250.592471 
L 390.462883 250.592471 
L 390.683485 252.276233 
L 393.258352 252.276233 
L 393.467128 254.038337 
L 395.907511 254.038337 
L 396.105664 255.886431 
L 398.424916 255.886431 
L 398.613475 257.829339 
L 400.642561 257.829339 
L 400.823054 259.877319 
L 403.45596 259.877319 
L 403.626712 262.042389 
L 406.283224 262.042389 
L 406.444718 264.338753 
L 409.266831 264.338753 
L 409.419096 266.78337 
L 413.225314 266.78337 
L 413.366144 269.39671 
L 417.806514 269.39671 
L 417.935176 272.203802 
L 420.928844 272.203802 
L 421.049819 275.235692 
L 426.432336 275.235692 
L 426.649159 278.531545 
L 431.198418 278.531545 
L 431.395799 282.141742 
L 436.808743 282.141742 
L 436.985456 286.132631 
L 442.495761 286.132631 
L 442.653727 290.594065 
L 448.035228 290.594065 
L 448.176846 295.652021 
L 457.689499 295.652021 
L 457.806558 301.491004 
L 466.734201 301.491004 
L 466.881021 308.397054 
L 477.82528 308.397054 
L 477.943248 316.849377 
L 492.222494 316.849377 
L 492.340853 327.746315 
L 511.379187 327.746315 
L 511.500792 343.104688 
L 538.606666 343.104688 
L 538.725039 369.36 
L 592.955294 369.36 
L 592.955294 369.36 
" clip-path="url(#p919c1dbbbe)" style="fill: none; stroke: #ff7f0e; stroke-width: 1.5; stroke-linecap: square"/>
   </g>
   <g id="line2d_88">
    <path d="M 115.363636 78.029585 
L 150.45639 86.703178 
L 170.984335 97.246414 
L 196.846487 97.448125 
L 206.077088 99.192348 
L 213.881451 113.418158 
L 220.641897 114.49026 
L 226.605033 130.696265 
L 231.93924 132.402148 
L 236.764617 143.37186 
L 241.169842 148.125792 
L 245.222255 148.680391 
L 248.974204 153.818243 
L 252.467185 156.194671 
L 255.73465 160.215851 
L 258.803962 165.230542 
L 261.697787 165.578053 
L 264.435109 167.548533 
L 269.502149 169.048864 
L 271.857371 170.412244 
L 274.107881 171.011915 
L 276.262595 171.417035 
L 278.329337 175.498542 
L 280.315009 175.954914 
L 282.225731 175.954914 
L 284.066958 179.81848 
L 285.843566 180.073555 
L 287.559939 181.908854 
L 289.220026 184.985544 
L 290.827404 188.654061 
L 292.385316 188.654061 
L 293.896716 188.976433 
L 295.364301 192.008323 
L 296.79054 192.008323 
L 298.177699 192.716351 
L 299.527863 193.075391 
L 300.842954 193.075391 
L 302.124747 194.546582 
L 303.374888 194.546582 
L 304.594902 195.304175 
L 306.950124 196.077231 
L 308.087883 196.866393 
L 309.200635 196.866393 
L 312.399265 198.081847 
L 313.42209 198.914373 
L 314.424661 198.914373 
L 315.407762 199.3376 
L 316.372137 200.636416 
L 319.159711 203.375807 
L 320.055808 203.375807 
L 320.936319 204.334805 
L 321.801779 204.334805 
L 323.48954 205.318716 
L 324.31278 205.318716 
L 325.920157 206.328866 
L 326.705106 207.366696 
L 327.478069 207.366696 
L 328.239409 207.896472 
L 328.989469 210.092937 
L 329.728579 210.092937 
L 330.457054 210.662548 
L 331.175196 211.82813 
L 333.270453 213.646643 
L 334.620617 213.646643 
L 335.282432 216.215654 
L 336.58066 217.568599 
L 337.84643 217.568599 
L 338.467642 218.971663 
L 339.081324 219.693178 
L 339.687656 219.693178 
L 340.286813 220.428704 
L 340.878961 220.428704 
L 341.464264 221.178796 
L 342.614953 221.178796 
L 343.180637 221.944043 
L 345.382207 221.944043 
L 345.91796 222.725069 
L 346.448102 222.725069 
L 346.972751 223.522538 
L 348.514844 223.522538 
L 349.018611 225.169685 
L 350.011351 226.891727 
L 350.984999 226.891727 
L 351.46489 227.783025 
L 352.877861 227.783025 
L 353.340221 228.695802 
L 354.702496 228.695802 
L 355.148561 229.631119 
L 356.029073 229.631119 
L 356.463652 231.574027 
L 357.745446 231.574027 
L 358.165598 232.584178 
L 358.582293 232.584178 
L 358.995587 233.622008 
L 360.215601 233.622008 
L 361.012911 235.787077 
L 362.570823 235.787077 
L 362.952924 236.91786 
L 366.26795 236.91786 
L 366.623236 238.083441 
L 369.042789 238.083441 
L 369.37919 239.286032 
L 370.045359 239.286032 
L 370.375185 240.528058 
L 371.992835 240.528058 
L 372.310254 241.812195 
L 373.868166 241.812195 
L 374.174077 243.141398 
L 376.265212 243.141398 
L 376.557018 244.518946 
L 377.991339 244.518946 
L 378.27339 245.94849 
L 379.66055 245.94849 
L 379.933478 247.434108 
L 382.065504 247.434108 
L 382.325804 248.98038 
L 386.557644 248.98038 
L 386.795894 250.592471 
L 388.891151 250.592471 
L 389.118694 252.276233 
L 391.556405 252.276233 
L 391.772304 254.038337 
L 394.293728 254.038337 
L 394.498287 255.886431 
L 398.613475 255.886431 
L 398.801335 257.829339 
L 400.642561 257.829339 
L 400.823054 259.877319 
L 402.767131 259.877319 
L 402.940219 262.042389 
L 405.958684 262.042389 
L 406.121214 264.338753 
L 410.023618 264.338753 
L 410.173628 266.78337 
L 413.366144 266.78337 
L 413.506583 269.39671 
L 417.548207 269.39671 
L 417.677525 272.203802 
L 422.125783 272.203802 
L 422.243935 275.235692 
L 427.294112 275.235692 
L 427.507284 278.531545 
L 431.983366 278.531545 
L 432.177716 282.141742 
L 438.032972 282.141742 
L 438.20547 286.132631 
L 443.823021 286.132631 
L 443.976906 290.594065 
L 451.726363 290.594065 
L 451.858035 295.652021 
L 460.260007 295.652021 
L 460.371278 301.491004 
L 470.236983 301.491004 
L 470.374001 308.397054 
L 482.843553 308.397054 
L 482.985967 316.849377 
L 499.005154 316.849377 
L 499.134538 327.746315 
L 520.795456 327.746315 
L 520.913255 343.104688 
L 554.746621 343.104688 
L 554.858507 369.36 
L 622.636364 369.36 
L 622.636364 369.36 
" clip-path="url(#p919c1dbbbe)" style="fill: none; stroke: #2ca02c; stroke-width: 1.5; stroke-linecap: square"/>
   </g>
   <g id="patch_3">
    <path d="M 90 384.48 
L 90 51.84 
" style="fill: none; stroke: #000000; stroke-width: 0.8; stroke-linejoin: miter; stroke-linecap: square"/>
   </g>
   <g id="patch_4">
    <path d="M 648 384.48 
L 648 51.84 
" style="fill: none; stroke: #000000; stroke-width: 0.8; stroke-linejoin: miter; stroke-linecap: square"/>
   </g>
   <g id="patch_5">
    <path d="M 90 384.48 
L 648 384.48 
" style="fill: none; stroke: #000000; stroke-width: 0.8; stroke-linejoin: miter; stroke-linecap: square"/>
   </g>
   <g id="patch_6">
    <path d="M 90 51.84 
L 648 51.84 
" style="fill: none; stroke: #000000; stroke-width: 0.8; stroke-linejoin: miter; stroke-linecap: square"/>
   </g>
   <g id="text_12">
    <!-- Zipf's Law -->
    <g transform="translate(338.693438 45.84) scale(0.12 -0.12)">
     <defs>
      <path id="DejaVuSans-5a" d="M 359 4666 
L 4025 4666 
L 4025 4184 
L 1075 531 
L 4097 531 
L 4097 0 
L 288 0 
L 288 481 
L 3238 4134 
L 359 4134 
L 359 4666 
z
" transform="scale(0.015625)"/>
      <path id="DejaVuSans-69" d="M 603 3500 
L 1178 3500 
L 1178 0 
L 603 0 
L 603 3500 
z
M 603 4863 
L 1178 4863 
L 1178 4134 
L 603 4134 
L 603 4863 
z
" transform="scale(0.015625)"/>
      <path id="DejaVuSans-70" d="M 1159 525 
L 1159 -1331 
L 581 -1331 
L 581 3500 
L 1159 3500 
L 1159 2969 
Q 1341 3281 1617 3432 
Q 1894 3584 2278 3584 
Q 2916 3584 3314 3078 
Q 3713 2572 3713 1747 
Q 3713 922 3314 415 
Q 2916 -91 2278 -91 
Q 1894 -91 1617 61 
Q 1341 213 1159 525 
z
M 3116 1747 
Q 3116 2381 2855 2742 
Q 2594 3103 2138 3103 
Q 1681 3103 1420 2742 
Q 1159 2381 1159 1747 
Q 1159 1113 1420 752 
Q 1681 391 2138 391 
Q 2594 391 2855 752 
Q 3116 1113 3116 1747 
z
" transform="scale(0.015625)"/>
      <path id="DejaVuSans-66" d="M 2375 4863 
L 2375 4384 
L 1825 4384 
Q 1516 4384 1395 4259 
Q 1275 4134 1275 3809 
L 1275 3500 
L 2222 3500 
L 2222 3053 
L 1275 3053 
L 1275 0 
L 697 0 
L 697 3053 
L 147 3053 
L 147 3500 
L 697 3500 
L 697 3744 
Q 697 4328 969 4595 
Q 1241 4863 1831 4863 
L 2375 4863 
z
" transform="scale(0.015625)"/>
      <path id="DejaVuSans-27" d="M 1147 4666 
L 1147 2931 
L 616 2931 
L 616 4666 
L 1147 4666 
z
" transform="scale(0.015625)"/>
      <path id="DejaVuSans-4c" d="M 628 4666 
L 1259 4666 
L 1259 531 
L 3531 531 
L 3531 0 
L 628 0 
L 628 4666 
z
" transform="scale(0.015625)"/>
      <path id="DejaVuSans-77" d="M 269 3500 
L 844 3500 
L 1563 769 
L 2278 3500 
L 2956 3500 
L 3675 769 
L 4391 3500 
L 4966 3500 
L 4050 0 
L 3372 0 
L 2619 2869 
L 1863 0 
L 1184 0 
L 269 3500 
z
" transform="scale(0.015625)"/>
     </defs>
     <use xlink:href="#DejaVuSans-5a"/>
     <use xlink:href="#DejaVuSans-69" x="68.505859"/>
     <use xlink:href="#DejaVuSans-70" x="96.289062"/>
     <use xlink:href="#DejaVuSans-66" x="159.765625"/>
     <use xlink:href="#DejaVuSans-27" x="194.970703"/>
     <use xlink:href="#DejaVuSans-73" x="222.460938"/>
     <use xlink:href="#DejaVuSans-20" x="274.560547"/>
     <use xlink:href="#DejaVuSans-4c" x="306.347656"/>
     <use xlink:href="#DejaVuSans-61" x="362.060547"/>
     <use xlink:href="#DejaVuSans-77" x="423.339844"/>
    </g>
   </g>
   <g id="legend_1">
    <g id="patch_7">
     <path d="M 552.64375 103.874375 
L 641 103.874375 
Q 643 103.874375 643 101.874375 
L 643 58.84 
Q 643 56.84 641 56.84 
L 552.64375 56.84 
Q 550.64375 56.84 550.64375 58.84 
L 550.64375 101.874375 
Q 550.64375 103.874375 552.64375 103.874375 
z
" style="fill: #ffffff; opacity: 0.8; stroke: #cccccc; stroke-linejoin: miter"/>
    </g>
    <g id="line2d_89">
     <path d="M 554.64375 64.938437 
L 564.64375 64.938437 
L 574.64375 64.938437 
" style="fill: none; stroke: #1f77b4; stroke-width: 1.5; stroke-linecap: square"/>
    </g>
    <g id="text_13">
     <!-- Slovenian -->
     <g transform="translate(582.64375 68.438437) scale(0.1 -0.1)">
      <defs>
       <path id="DejaVuSans-53" d="M 3425 4513 
L 3425 3897 
Q 3066 4069 2747 4153 
Q 2428 4238 2131 4238 
Q 1616 4238 1336 4038 
Q 1056 3838 1056 3469 
Q 1056 3159 1242 3001 
Q 1428 2844 1947 2747 
L 2328 2669 
Q 3034 2534 3370 2195 
Q 3706 1856 3706 1288 
Q 3706 609 3251 259 
Q 2797 -91 1919 -91 
Q 1588 -91 1214 -16 
Q 841 59 441 206 
L 441 856 
Q 825 641 1194 531 
Q 1563 422 1919 422 
Q 2459 422 2753 634 
Q 3047 847 3047 1241 
Q 3047 1584 2836 1778 
Q 2625 1972 2144 2069 
L 1759 2144 
Q 1053 2284 737 2584 
Q 422 2884 422 3419 
Q 422 4038 858 4394 
Q 1294 4750 2059 4750 
Q 2388 4750 2728 4690 
Q 3069 4631 3425 4513 
z
" transform="scale(0.015625)"/>
       <path id="DejaVuSans-76" d="M 191 3500 
L 800 3500 
L 1894 563 
L 2988 3500 
L 3597 3500 
L 2284 0 
L 1503 0 
L 191 3500 
z
" transform="scale(0.015625)"/>
      </defs>
      <use xlink:href="#DejaVuSans-53"/>
      <use xlink:href="#DejaVuSans-6c" x="63.476562"/>
      <use xlink:href="#DejaVuSans-6f" x="91.259766"/>
      <use xlink:href="#DejaVuSans-76" x="152.441406"/>
      <use xlink:href="#DejaVuSans-65" x="211.621094"/>
      <use xlink:href="#DejaVuSans-6e" x="273.144531"/>
      <use xlink:href="#DejaVuSans-69" x="336.523438"/>
      <use xlink:href="#DejaVuSans-61" x="364.306641"/>
      <use xlink:href="#DejaVuSans-6e" x="425.585938"/>
     </g>
    </g>
    <g id="line2d_90">
     <path d="M 554.64375 79.616562 
L 564.64375 79.616562 
L 574.64375 79.616562 
" style="fill: none; stroke: #ff7f0e; stroke-width: 1.5; stroke-linecap: square"/>
    </g>
    <g id="text_14">
     <!-- Portuguese -->
     <g transform="translate(582.64375 83.116562) scale(0.1 -0.1)">
      <defs>
       <path id="DejaVuSans-50" d="M 1259 4147 
L 1259 2394 
L 2053 2394 
Q 2494 2394 2734 2622 
Q 2975 2850 2975 3272 
Q 2975 3691 2734 3919 
Q 2494 4147 2053 4147 
L 1259 4147 
z
M 628 4666 
L 2053 4666 
Q 2838 4666 3239 4311 
Q 3641 3956 3641 3272 
Q 3641 2581 3239 2228 
Q 2838 1875 2053 1875 
L 1259 1875 
L 1259 0 
L 628 0 
L 628 4666 
z
" transform="scale(0.015625)"/>
       <path id="DejaVuSans-74" d="M 1172 4494 
L 1172 3500 
L 2356 3500 
L 2356 3053 
L 1172 3053 
L 1172 1153 
Q 1172 725 1289 603 
Q 1406 481 1766 481 
L 2356 481 
L 2356 0 
L 1766 0 
Q 1100 0 847 248 
Q 594 497 594 1153 
L 594 3053 
L 172 3053 
L 172 3500 
L 594 3500 
L 594 4494 
L 1172 4494 
z
" transform="scale(0.015625)"/>
      </defs>
      <use xlink:href="#DejaVuSans-50"/>
      <use xlink:href="#DejaVuSans-6f" x="56.677734"/>
      <use xlink:href="#DejaVuSans-72" x="117.859375"/>
      <use xlink:href="#DejaVuSans-74" x="158.972656"/>
      <use xlink:href="#DejaVuSans-75" x="198.181641"/>
      <use xlink:href="#DejaVuSans-67" x="261.560547"/>
      <use xlink:href="#DejaVuSans-75" x="325.037109"/>
      <use xlink:href="#DejaVuSans-65" x="388.416016"/>
      <use xlink:href="#DejaVuSans-73" x="449.939453"/>
      <use xlink:href="#DejaVuSans-65" x="502.039062"/>
     </g>
    </g>
    <g id="line2d_91">
     <path d="M 554.64375 94.294687 
L 564.64375 94.294687 
L 574.64375 94.294687 
" style="fill: none; stroke: #2ca02c; stroke-width: 1.5; stroke-linecap: square"/>
    </g>
    <g id="text_15">
     <!-- Polish -->
     <g transform="translate(582.64375 97.794687) scale(0.1 -0.1)">
      <defs>
       <path id="DejaVuSans-68" d="M 3513 2113 
L 3513 0 
L 2938 0 
L 2938 2094 
Q 2938 2591 2744 2837 
Q 2550 3084 2163 3084 
Q 1697 3084 1428 2787 
Q 1159 2491 1159 1978 
L 1159 0 
L 581 0 
L 581 4863 
L 1159 4863 
L 1159 2956 
Q 1366 3272 1645 3428 
Q 1925 3584 2291 3584 
Q 2894 3584 3203 3211 
Q 3513 2838 3513 2113 
z
" transform="scale(0.015625)"/>
      </defs>
      <use xlink:href="#DejaVuSans-50"/>
      <use xlink:href="#DejaVuSans-6f" x="56.677734"/>
      <use xlink:href="#DejaVuSans-6c" x="117.859375"/>
      <use xlink:href="#DejaVuSans-69" x="145.642578"/>
      <use xlink:href="#DejaVuSans-73" x="173.425781"/>
      <use xlink:href="#DejaVuSans-68" x="225.525391"/>
     </g>
    </g>
   </g>
  </g>
 </g>
 <defs>
  <clipPath id="p919c1dbbbe">
   <rect x="90" y="51.84" width="558" height="332.64"/>
  </clipPath>
 </defs>
</svg>
